<?xml version="1.0" encoding="utf-8"?>
<!-- Generator: Adobe Illustrator 16.0.0, SVG Export Plug-In . SVG Version: 6.00 Build 0)  -->
<!DOCTYPE svg PUBLIC "-//W3C//DTD SVG 1.1//EN" "http://www.w3.org/Graphics/SVG/1.1/DTD/svg11.dtd">
<svg version="1.1" id="Layer_1" xmlns="http://www.w3.org/2000/svg" xmlns:xlink="http://www.w3.org/1999/xlink" x="0px" y="0px"
	 width="612px" height="792px" viewBox="0 0 612 792" enable-background="new 0 0 612 792" xml:space="preserve">
<g>
	<path fill-rule="evenodd" clip-rule="evenodd" fill="#FEFEFE" d="M307.469,647.938c-82.156,0-164.313-0.027-246.469,0.096
		c-3.424,0.006-4.097-0.672-4.095-4.096c0.108-163.979,0.108-327.958,0-491.938c-0.002-3.422,0.67-4.096,4.094-4.094
		c164.313,0.108,328.625,0.108,492.938,0c3.423-0.002,4.097,0.67,4.095,4.094c-0.108,163.979-0.108,327.958,0,491.938
		c0.002,3.424-0.671,4.102-4.095,4.096C471.781,647.91,389.625,647.938,307.469,647.938z M343.941,271.222
		c-0.311-0.155-0.621-0.311-0.932-0.466c-0.366-0.859-1.067-1.218-1.952-1.303c-0.203-0.229-0.436-0.42-0.696-0.574
		c-7.014-5.201-14.646-8.954-23.426-10.026c-0.466-0.047-0.933-0.093-1.398-0.139c-3.734-1.638-7.483-1.449-11.242-0.09
		c-0.439,0.098-0.879,0.195-1.318,0.293c-1.012-0.223-2.004-0.285-2.911,0.355c-0.685,0.237-1.369,0.475-2.053,0.712
		c-0.651,0.091-1.303,0.182-1.954,0.273c-1.106-0.212-2.125-0.014-3.041,0.657c-1.041-0.316-1.931-0.062-2.687,0.708
		c-14.554,4.128-25.508,13.711-36.1,23.839c-0.805,0.774-1.609,1.549-2.414,2.324c-2.354-0.602-3.939-2.404-5.804-3.756
		c-11.405-8.274-22.189-17.389-33.971-25.154c-0.905-1.351-1.798-1.745-2.665,0.032c-0.525,0.399-1.098,0.75-1.568,1.206
		c-44.211,42.874-88.405,85.767-132.653,128.602c-1.897,1.837-1.898,3.346-0.985,5.679c3.634,9.275,7.112,18.615,10.418,28.013
		c0.987,2.807,2.448,4.885,4.824,6.675c37.481,28.234,74.909,56.54,112.353,84.824c7.838,5.921,15.691,11.822,24.052,18.122
		c-0.406-2.115-0.649-3.382-0.892-4.647c1.267-1.455,1.161-3.67,2.89-4.924c1.783-1.294,1.65-2.948,0.393-4.604
		c0.34-3.258,0.681-6.518,1.021-9.775c0.681-5.716,0.357-11.436,1.383-17.237c1.124-6.354,3.486-10.482,9.302-12.795
		c7.697-0.136,15.394-0.271,23.091-0.407c6.822,0.073,13.647,0.024,20.464,0.257c5.998,0.205,9.289,4.157,8.511,10.141
		c-0.378,2.915-1.265,5.761-1.861,8.649c-0.335,1.623-0.097,2.665,2.017,1.911c7.221-2.573,14.741-1.69,22.167-1.756
		c4.421-0.039,9.112-0.836,12.35,3.497c0.55,0.735,1.447,0.714,2.274,0.328c3.571-1.662,7.726-1.426,11.189-3.437
		c11.337-1.104,22.735,1.59,34.055-0.557c8.576,0.15,17.152,0.301,25.729,0.451c2.767,1.762,4.993,3.953,5.798,7.277
		c0.121,1.552-1.32,2.906-0.571,4.537c-0.708,3.032-1.416,6.064-2.124,9.097l0.041-0.049c-1.117,0.22-1.44,0.904-1.141,1.952
		l0.036-0.04c-1.826-0.11-2.948,1.262-4.344,2.06c-0.498,0.013-0.997,0.031-1.496,0.038c-1.79,0.022-3.45,0.228-3.147,2.677
		c0.338,2.723,2.271,1.079,3.471,1.144c2.806,0.15,5.091-1.081,7.159-2.952c3.453-3.122,7.216-5.922,10.488-9.216
		c3.698-3.723,8.132-5.465,13.111-6.535c9.422-2.026,18.753-4.484,28.199-6.375c3.634-0.728,4.208-1.996,2.979-5.291
		c-1.329-3.566-1.778-7.47-3.173-11.004c-1.466-3.715-0.529-5.983,2.438-8.529c24.983-21.436,49.828-43.034,74.72-64.577
		c2.567-2.222,5.507-4.076,7.028-7.301c0.104-1.766-1.446-2.455-2.39-3.458c-29.838-31.738-59.711-63.443-89.584-95.149
		c-16.076-17.062-32.167-34.112-48.235-51.182c-1.754-1.863-3.363-4.294-5.55-0.465c-9.895,8.578-19.789,17.157-29.682,25.735
		c-1.54,1.096-3.082,2.191-4.622,3.288c-1.061-0.919-1.854-2.204-3.389-2.47c-0.568-0.479-1.137-0.958-1.705-1.437
		c-0.707-1.358-1.79-2.241-3.285-2.603c-0.088-0.355-0.313-0.51-0.675-0.463c-0.755-1.309-1.807-2.222-3.329-2.512
		c-0.058-0.373-0.274-0.538-0.649-0.496C345.809,271.837,344.996,271.352,343.941,271.222z M367.936,535.903l-0.026,0.014
		c-1.675,2.452-6.836,4.111-1.854,8.121c0.101,0.081-0.423,0.827-0.532,1.292c-1.315,5.588-1.31,5.593,4.641,5.622
		c1.995,0.01,3.994-0.063,5.987,0.014c1.646,0.062,2.726-0.151,3.091-2.188c1.491-8.328,3.967-16.465,4.915-24.904
		c0.328-1.104,0.871-2.193,0.948-3.314c0.33-4.845,2.103-7.82,7.661-6.606c2.131,0.466,2.819-0.821,3.167-2.752
		c0.819-4.552-0.05-5.502-5.921-5.978c-7.313-0.063-14.628-0.037-21.938-0.241c-2.313-0.064-3.146,0.787-3.602,2.947
		c-0.68,3.222-2.6,3.389-4.418,0.935c-2.158-2.913-5.36-3.295-8.379-3.719c-7.469-1.049-14.371,1.851-21.298,3.942
		c-2.639,0.796-4.338,3.228-2.097,6.204c1.121,1.488,1.01,3.067,0.949,4.711c-0.763,1.335,3.028,2.647,0.016,3.995
		c-4.139,1.851-1.577,2.826,0.413,4.256c4.067,2.922,9.703,2.013,13.414,5.677c1.5,2.227,1.116,4.733,0.674,7.063
		c-0.408,2.148-2.326,2.631-4.322,2.353c-2.227-0.312-1.854-1.966-1.617-3.445c0.236-1.464,0.588-2.91,1.144-5.592
		c-5.305,2.558-13.612-4.03-14.353,7.152c-0.008,0.114-0.183,0.249-0.311,0.317c-4.874,2.616-1.472,4.734,0.784,5.839
		c6.503,3.183,13.498,4.266,20.648,2.67c7.946-1.773,10.499-4.931,11.451-13.412c1.579-5.395-1.018-8.958-5.281-11.646
		c-2.94-1.853-6.029-3.468-9.051-5.19c-0.123-0.816-0.4-1.646-0.34-2.448c0.185-2.444,0.809-5.061,3.831-4.75
		c2.605,0.268,1.519,2.592,1.314,4.275c-0.218,1.8,0.56,2.661,2.493,2.574c2.483-0.111,4.979-0.103,7.462,0.004
		c1.882,0.081,2.845-0.772,2.923-2.541c0.13-2.92,1.815-3.409,4.317-3.201c2.307,0.192,4.641,0.056,6.961,0.064
		c-0.435,4.395-0.552,8.924-6.052,11.596c2.68,0.315,4.192,0.493,5.704,0.671c-0.006,0.168-0.012,0.336-0.019,0.505
		c-1.326,0.101-2.651,0.202-4.353,0.332c1.023,0.837,1.615,1.321,2.208,1.807c-0.035,0.354-0.069,0.707-0.104,1.061
		c-0.155,0.302-0.311,0.604-0.466,0.906c-0.914,0.563-0.553,1.346-0.359,2.098c-0.111,0.648-0.222,1.298-0.333,1.946
		C368.025,535.263,367.995,535.584,367.936,535.903z M267.248,534.889c-1.311,3.509,1.958,3.006,3.505,3.826
		c1.614,0.854,2.382-0.049,2.282-1.761c1.049-1.759,2.098-3.517,3.634-6.092C272.581,531.764,268.037,528.672,267.248,534.889z
		 M318.597,538.862c0.07-1.983,0.142-3.967,0.212-5.95c1.008-8.433,0.596-16.92,0.979-25.377c0.094-2.047-0.908-2.527-2.726-2.501
		c-5.326,0.077-10.656-0.021-15.981,0.111c-1.268,0.032-3.64,0.803-3.616,1.058c0.656,7.034-5.638,3.396-7.707,5.297
		c1.541,1.298,5.271-1.766,5.745,1.559c0.455,3.2-3.591,1.794-5.408,2.894c-0.219,0.132-0.31,0.476-0.413,0.645
		c1.289,1.139,4.538-0.753,4.301,1.925c-0.299,3.383-3.79,4.113-6.813,5.043c1.822,0.34,4.28-0.815,3.965,2.424
		c-0.907,1.477-2.701,2.367-2.182,4.742c0.284,1.298-0.69,2.815-2.185,3.577c-3.188,1.625-2.837,3.867-1.042,6.329
		c-1.851,0.537-1.419,3.482-3.729,3.535c0.491,1.118,2.439,2.031,0.357,3.503c-0.617,0.437-2.688-0.559-1.756,1.588
		c0.507,1.167,1.305,1.791,2.665,1.765c3.161-0.06,6.335-0.188,9.482,0.026c2.549,0.174,4.134-0.546,4.676-3.156
		c0.862-4.154,3.666-4.593,7.278-3.613c-0.087,0.79,0.039,1.715-0.304,2.406c-1.884,3.805,0.525,4.239,3.294,4.179
		c13.572-0.295,10.568,2.731,11.14-10.537C318.852,539.847,318.679,539.353,318.597,538.862z M266.979,498.958
		c1.817,0.003,3.635,0.003,5.452,0.011c9.014,0.036,8.741-0.026,10.753-8.723c1.058-4.574-0.926-4.625-4.181-4.034
		c-3.316-0.056-6.633-0.14-9.951-0.157c-3.489-0.02-7.017-0.288-10.455,0.136c-2.862,0.354-5.721-1.319-8.804,1.418
		c-1.92,1.706-5.901,2.171-9.208,1.871c7.154,0.087,9.141,1.757,6.2,5.676c-2.59,3.452,1.137,3.13,1.527,4.247
		c-3.086,2.337-6.382,3.597-10.181,2.925c2.887,1.046,9.113-2.07,6.491,5.471c-0.524,0.107-1.048,0.216-1.572,0.323
		c-1.568-0.193-3.143-0.541-5.017,0.245c2.071,0.981,4.906,1.801,4.688,3.718c-0.248,2.181-3.153,0.646-4.764,1.476
		c2.947-0.976,5.524,2.128,8.525,0.616c0.315,0.017,0.63,0.033,0.945,0.05c0.031,0.313,0.181,0.551,0.45,0.714
		c-0.984,1.131-2.346,0.914-3.627,1.14c-0.98,0.173-2.613-0.004-2.322,1.9c0.348,0.662,0.695,1.325,1.043,1.987
		c-0.032,0.646-0.064,1.292-0.096,1.938c-0.838,0.219-2.009,0.004-1.95,1.421c0.019,0.461-0.333,1.407,0.801,0.81
		c-1.105,3.417-3.252,5.145-6.129,4.344c4.248,0.217,3.849,0.191,3.544,5.025c-0.122,1.93-1.677,3.464-0.994,5.412
		c0.702,1.968-2.432,3.613-0.801,5.365c2.005,2.154-0.297,3.184-0.815,4.622c-0.133,0.368-1.806,0.088-1.166,1.354
		c0.215,0.425,1.092,0.718,1.67,0.724c4.986,0.051,9.982-0.153,14.958,0.085c2.845,0.137,3.642-1.03,4.064-3.592
		c0.809-4.912,1.977-9.765,3.037-14.634c2.085-9.575,2.096-9.626,12.062-9.813c2.207-0.042,3.453-0.248,4.068-2.936
		c2.086-9.115,2.252-9.074-7.178-9.109c-1.33-0.005-2.659-0.049-3.988-0.074c0.39-3.307,1.815-6.518,0.925-9.943
		C265.649,500.296,266.314,499.627,266.979,498.958z"/>
	<path fill-rule="evenodd" clip-rule="evenodd" fill="#007751" d="M399.898,497.124c-8.576-0.15-17.152-0.301-25.731-0.451
		c0.635-1.333-0.209-2.095-1.023-2.983c-7.393-8.065-14.933-16.008-22.026-24.33c-2.844-3.337-6.648-6.016-8.177-10.41
		c3.002,1.159,6.146,1.085,9.294,1.189c7.533,0.252,15.036-0.465,22.599-0.175c13.556,0.521,27.147,0.121,40.724,0.162
		c4.601,0.014,8.728-1.348,12.576-3.785c0.837-0.53,1.701-2.34,2.781-0.944c3.958,5.119,9.788,3.965,15.028,4.82
		c-0.391,2.603-1.035,5.197-1.122,7.811c-0.246,7.43-4.347,10.894-11.354,11.611c-5.168,0.53-10.018,2.354-14.696,4.344
		C411.626,487.02,404.914,490.918,399.898,497.124z"/>
	<path fill-rule="evenodd" clip-rule="evenodd" fill="#013761" d="M340.115,497.229c-3.464,2.011-7.618,1.774-11.189,3.437
		c-0.827,0.386-1.725,0.407-2.274-0.328c-3.237-4.333-7.929-3.536-12.35-3.497c-7.426,0.065-14.945-0.817-22.167,1.756
		c-2.113,0.754-2.352-0.288-2.017-1.911c0.596-2.889,1.483-5.734,1.861-8.649c0.778-5.983-2.513-9.936-8.511-10.141
		c-6.817-0.232-13.643-0.184-20.465-0.257c-0.502-6.255-1.525-12.361-5.044-17.758c0.56-0.292,1.201-0.934,1.666-0.824
		c8.168,1.926,16.443,0.754,24.664,0.875c5.42,0.079,11.659,2.131,16.043-1.104c4.37-3.225,7.405-2.033,11.236-0.387
		c2.402,1.033,4.924,1.79,7.393,2.671c2.101,4.871,5.604,8.909,8.099,13.534C331.192,482.304,337.193,488.877,340.115,497.229z"/>
	<path fill-rule="evenodd" clip-rule="evenodd" fill="#005976" d="M239.914,478.046c-5.816,2.313-8.178,6.441-9.302,12.795
		c-1.026,5.802-0.702,11.521-1.383,17.237c-3.308-0.182-5.905-1.848-8.468-3.786c-15.822-11.963-31.76-23.774-47.487-35.859
		c-2.861-2.199-7.087-3.489-7.436-8.119c24.039-0.987,48.077-0.346,72.115-0.014C238.033,466.278,238.338,472.231,239.914,478.046z"
		/>
	<path fill-rule="evenodd" clip-rule="evenodd" fill="#002532" d="M341.059,269.453c0.884,0.085,1.585,0.444,1.951,1.304
		c-0.039,0.89,0.025,1.734,0.966,2.192l0.035,0.012c0.64,1.192,1.902,1.458,2.978,2.004l0.005-0.002
		c-0.005,0.666-0.011,1.332-0.016,1.998c-0.001,0.324,0.033,0.643,0.104,0.959c-7.265,0.156-7.548,0.436-5.148,5.092
		c0.046,0.81,0.227,1.552,1.01,1.987c0.008,1.328,0.016,2.656,0.023,3.984c-1.659-0.033-2.161-1.313-2.71-2.53
		c-1.916-4.247-5.016-7.611-8.038-11.065c-1.721-1.966-4.44-2.18-5.653-1.2c-1.188,0.961-1.67,3.909,0.716,5.484l-0.006-0.004
		c-0.082,4.268-0.496,8.561-0.171,12.796c0.514,6.704-2.056,13.004-2.083,19.602c-1.287,1.766-2.592,3.512-4.899,4.041
		c0.415-6.727,4.101-12.605,4.601-19.431c0.823-11.213-0.119-21.207-10.112-28.685c-7.573-5.667-19.483-1.438-20.7,4.947
		c-0.327,0.33-0.654,0.659-0.981,0.988c-6.591,3.658-9.109,16.012-4.916,24.113c1.467,8.728,4.328,16.876,9.938,23.88
		c0.348,2.777,2.613,1.807,4.205,2.151c-0.177,2.355,1.143,3.882,2.871,5.183c0.446,2.476,2.093,4.182,3.76,5.877
		c0.153,3.437,3.221,4.72,5.093,6.886c0.92,3.593,4.324,5.355,6.178,8.315c1.436,2.295,3.063,4.166,0.542,6.482
		c-2.907,2.674-4.293-0.367-6.157-1.776c-3.338-2.523-4.586-6.906-8.236-9.127c-1.737-4.057-4.284-7.582-7.141-10.905
		c-1.862-3.956-3.75-7.895-6.87-11.07c-0.476-3.726-2.78-6.668-4.267-9.961c-0.233-0.535-0.377-1.455-0.718-1.535
		c-1.102-0.26-1.093,0.752-1.253,1.487c-2.279,3.357,0.332,6.668,0.094,10.006c-0.349,2.428,0.419,4.711,0.917,7.029
		c-0.167,4.195,0.609,8.229,2.066,12.146c-2.07,2.313-3.708,5.128-6.996,6.028c-1.742-7.327-2.47-14.799-3.235-22.266
		c-0.257-1.618-0.514-3.236-0.771-4.854c-0.108-2.708-0.216-5.416-0.325-8.122c-0.019-1.249-0.037-2.498-0.056-3.748
		c2.281-0.277,1.996-2.031,2.403-3.671c2.486-10.031,1.322-20.775,6.011-30.384c0.834-1.71,1.943-4.02,0.085-5.538
		c-1.599-1.305-3.797-0.648-5.702,0.146c-0.451,0.188-0.972,0.206-1.461,0.302l-0.036-0.042c2.443-4.521,7.245-5.39,11.412-6.754
		c7.741-2.533,15.611-4.474,24.024-3.432c5.767,0.714,10.932,3.321,16.583,4.203l0.004,0.001c0.32,2.688,2.419,1.82,3.995,1.999
		l0.004,0.003c0.33,0.321,0.661,0.642,0.992,0.963l0.044,0.029c0.389,0.853,1.135,0.999,1.959,0.989l0.019,0.011
		C338.826,270.312,339.622,271.934,341.059,269.453z"/>
	<path fill-rule="evenodd" clip-rule="evenodd" fill="#008FBE" d="M228.208,517.854c1.258,1.655,1.391,3.31-0.393,4.604
		c-1.729,1.254-1.623,3.469-2.89,4.922c-0.88-0.446-1.855-0.767-2.626-1.354c-12.988-9.888-25.89-19.892-38.934-29.708
		c-28.975-21.805-58.07-43.45-86.954-65.374c-2.96-2.247-7.313-3.443-8.177-7.975c1.195-1.377,2.388-2.755,3.581-4.133
		c1.732,0.008,3.078,0.705,4.47,1.807c24.921,19.711,50.83,38.122,75.918,57.627c14.491,11.265,29.219,22.271,44.077,33.064
		C219.865,513.938,222.895,518.181,228.208,517.854z"/>
	<path fill-rule="evenodd" clip-rule="evenodd" fill="#00759A" d="M228.208,517.854c-5.313,0.327-8.343-3.916-11.927-6.52
		c-14.858-10.794-29.586-21.8-44.077-33.064c-25.088-19.505-50.997-37.916-75.918-57.627c-1.393-1.102-2.738-1.799-4.469-1.806
		c1.668-2.02,3.336-4.038,5.004-6.059c5.211,0.185,7.917,4.507,11.568,7.171c12.661,9.24,25.166,18.696,37.73,28.068
		c0.106,9.245,2.978,12.064,12.255,12.099c2.488,0.009,4.976,0.128,7.464,0.197c0.348,4.63,4.574,5.92,7.436,8.119
		c15.727,12.085,31.666,23.896,47.487,35.859c2.563,1.938,5.161,3.604,8.468,3.786C228.889,511.336,228.548,514.596,228.208,517.854
		z"/>
	<path fill-rule="evenodd" clip-rule="evenodd" fill="#161E21" d="M88.233,422.969c0.866,4.531,5.218,5.728,8.179,7.975
		c28.884,21.924,57.979,43.569,86.954,65.374c13.043,9.816,25.945,19.82,38.934,29.708c0.771,0.587,1.746,0.907,2.626,1.354
		c0.243,1.268,0.486,2.534,0.892,4.649c-8.361-6.3-16.214-12.201-24.052-18.122c-37.444-28.284-74.872-56.59-112.353-84.824
		c-2.376-1.79-3.837-3.868-4.824-6.675c-3.306-9.397-6.784-18.737-10.418-28.013c-0.913-2.333-0.912-3.842,0.985-5.679
		c44.249-42.835,88.442-85.729,132.653-128.602c0.471-0.456,1.043-0.807,1.569-1.206c0.414,0.58,0.828,1.16,1.242,1.74
		c-0.657,0.92-1.113,2.173-2.002,2.708c-6.563,3.946-10.155,10.684-15.264,15.984c-1.785-0.541-2.721,0.659-3.794,1.746
		c-6.334,6.413-12.415,13.113-19.123,19.11c-13.173,11.774-25.233,24.667-37.972,36.873c-9.13,8.749-18.262,17.5-27.233,26.41
		c-7.477,7.427-15.73,14.091-22.247,22.468c-3.236,1.526-6.733,3.706-5.807,7.49c1.616,6.599,4.283,12.952,6.67,19.347
		C85.139,416.243,86.761,419.578,88.233,422.969z"/>
	<path fill-rule="evenodd" clip-rule="evenodd" fill="#002532" d="M340.115,497.229c-2.922-8.353-8.923-14.926-13.056-22.584
		c-2.495-4.625-5.998-8.663-8.099-13.534c6.595-1.162,13.51-1.106,19.536-4.489c2.275-1.277,2.388,0.771,3.404,1.496
		c0.358,0.286,0.717,0.572,1.074,0.858l-0.035-0.027c1.528,4.395,5.333,7.073,8.177,10.41c7.094,8.322,14.634,16.265,22.026,24.33
		c0.814,0.889,1.658,1.65,1.023,2.983C362.851,498.819,351.452,496.125,340.115,497.229z"/>
	<path fill-rule="evenodd" clip-rule="evenodd" fill="#00875C" d="M399.898,497.124c5.016-6.206,11.728-10.104,18.871-13.142
		c4.679-1.99,9.528-3.813,14.696-4.344c7.008-0.718,11.108-4.182,11.354-11.611c0.087-2.613,0.731-5.208,1.122-7.811
		c3.655-0.108,7.311-0.216,10.967-0.323c-0.96,4.693-3.796,9.279-0.817,14.198c-2.45,1.662-4.716,3.441-4.348,6.882
		c-3.574,2.233-5.398,6.591-9.674,7.977c-3.874-3.073-7.256,0.291-10.657,1.105c-9.838,2.356-18.793,6.614-25.718,14.345
		C404.892,501.077,402.665,498.886,399.898,497.124z"/>
	<path fill-rule="evenodd" clip-rule="evenodd" fill="#161E21" d="M451.743,480.974c-0.367-3.44,1.898-5.22,4.349-6.882
		c1.307-1.296,2.614-2.591,3.922-3.885c6.409-5.424,12.871-10.786,19.217-16.282c15.649-13.557,31.244-27.175,46.861-40.769
		c2.379-1.037,3.905-2.92,5.086-5.143c2.008-0.081,2.929-1.588,3.926-2.993c0.813-0.063,1.555-0.245,1.869-1.132
		c0.8,0.049,1.6,0.099,2.399,0.147c-1.521,3.225-4.461,5.079-7.028,7.301c-24.892,21.543-49.736,43.142-74.72,64.577
		c-2.968,2.546-3.904,4.814-2.438,8.529c1.395,3.534,1.844,7.438,3.173,11.004c1.229,3.295,0.654,4.563-2.979,5.291
		c-9.446,1.891-18.777,4.349-28.199,6.375c-4.979,1.07-9.413,2.813-13.111,6.535c-3.272,3.294-7.035,6.094-10.488,9.216
		c-2.068,1.871-4.354,3.103-7.159,2.952c-1.199-0.064-3.133,1.579-3.471-1.144c-0.303-2.449,1.357-2.654,3.147-2.677
		c0.499-0.007,0.998-0.025,1.499-0.038c2.606,1.754,3.51-0.076,4.341-2.06l-0.036,0.04c0.989-0.294,2.14-0.493,1.141-1.952
		c0,0-0.041,0.049-0.041,0.048c2.414,0.394,3.732-1.45,5.249-2.711c5.07-4.215,9.363-9.616,16.547-10.487
		c0.837,0.002,1.712,0.1,2.137-0.89l0.014-0.012c7.927-0.461,15.288-3.436,22.931-5.157c2.604-0.746,7.896,1.033,5.748-4.577
		C453.957,489.846,453.287,485.302,451.743,480.974z"/>
	<path fill-rule="evenodd" clip-rule="evenodd" fill="#3B836E" d="M371.802,514.018c-2.32-0.009-4.654,0.128-6.961-0.064
		c-2.502-0.208-4.188,0.281-4.317,3.201c-0.078,1.769-1.041,2.622-2.923,2.541c-2.483-0.106-4.979-0.115-7.462-0.004
		c-1.934,0.087-2.711-0.774-2.493-2.574c0.204-1.684,1.291-4.008-1.314-4.275c-3.022-0.311-3.646,2.306-3.831,4.75
		c-0.061,0.803,0.217,1.632,0.34,2.448c-4.543,2.226-9.073,0.087-13.609-0.036c0.061-1.645,0.172-3.224-0.949-4.712
		c-2.241-2.977-0.542-5.408,2.097-6.204c6.927-2.092,13.829-4.991,21.298-3.942c3.019,0.424,6.221,0.806,8.379,3.719
		c1.818,2.454,3.738,2.287,4.418-0.935c0.456-2.16,1.289-3.012,3.602-2.947c7.31,0.204,14.624,0.179,21.938,0.241
		C386.257,512.947,379.684,514.838,371.802,514.018z"/>
	<path fill-rule="evenodd" clip-rule="evenodd" fill="#293540" d="M539.372,404.036c-0.8-0.049-1.6-0.099-2.399-0.146
		c-0.987-0.656-1.975-1.313-2.962-1.969c-0.197-1.82-1.142-2.888-3.03-3.003c-0.529-3.514-4.381-4.271-5.825-7.024
		c-7.068-7.63-14.103-15.292-21.215-22.881c-9.072-9.679-18.234-19.275-27.308-28.954c-8.391-8.949-16.658-18.013-25.08-26.932
		c-13.035-13.804-25.993-27.687-39.319-41.207c-5.5-5.58-9.917-12.179-16.197-16.997c-0.522-0.987-1.518-0.97-2.423-1.142
		c2.187-3.829,3.796-1.397,5.55,0.465c16.068,17.07,32.159,34.12,48.235,51.182c29.873,31.706,59.746,63.411,89.584,95.149
		C537.926,401.581,539.477,402.271,539.372,404.036z"/>
	<path fill-rule="evenodd" clip-rule="evenodd" fill="#3B836E" d="M264.06,510.907c1.329,0.025,2.659,0.069,3.988,0.074
		c9.43,0.035,9.264-0.006,7.178,9.109c-0.615,2.688-1.861,2.894-4.068,2.936c-9.966,0.188-9.977,0.238-12.062,9.813
		c-1.06,4.869-2.228,9.722-3.037,14.634c-0.422,2.562-1.219,3.729-4.064,3.592c-4.976-0.238-9.972-0.034-14.958-0.085
		c-0.578-0.006-1.455-0.299-1.67-0.724c-0.64-1.266,1.033-0.985,1.166-1.354c0.518-1.438,2.82-2.468,0.815-4.622
		c-1.63-1.752,1.503-3.397,0.801-5.365c10.836-1.698,16.587-8.91,19.807-18.618C259.197,516.557,261.08,513.425,264.06,510.907z"/>
	<path fill-rule="evenodd" clip-rule="evenodd" fill="#3B836E" d="M291.136,525.988c0.315-3.239-2.143-2.084-3.965-2.424
		c3.023-0.93,6.514-1.66,6.813-5.043c0.237-2.678-3.012-0.786-4.301-1.925c0.103-0.169,0.194-0.513,0.413-0.645
		c1.817-1.1,5.863,0.307,5.408-2.894c-0.474-3.324-4.204-0.261-5.745-1.559c2.068-1.901,8.363,1.737,7.707-5.297
		c-0.024-0.255,2.348-1.025,3.616-1.058c5.325-0.133,10.655-0.034,15.981-0.111c1.817-0.026,2.819,0.454,2.726,2.501
		c-0.384,8.457,0.028,16.944-0.979,25.377c0.519-7.544-3.823-10.017-10.495-10.076c-0.317-0.003-0.633-0.15-0.949-0.231
		c-0.364-1.149,0.854-3.05-0.648-3.414c-2.192-0.531-1.203,1.711-1.563,2.719c-0.392,1.094-0.571,2.228-2.022,2.355
		c-1.021-1.811-2.242-0.695-3.383-0.203C296.995,525.248,294.215,526.276,291.136,525.988z"/>
	<path fill-rule="evenodd" clip-rule="evenodd" fill="#275C6B" d="M264.06,510.907c-2.979,2.518-4.862,5.649-6.104,9.391
		c-3.22,9.708-8.971,16.92-19.807,18.618c-0.683-1.948,0.873-3.482,0.994-5.412c0.304-4.834,0.703-4.809-3.544-5.025
		c2.876,0.801,5.023-0.927,6.127-4.343c1.652-0.236,3.245-0.609,5.036-2.231c-1.712,0-2.799,0-3.885,0
		c0.032-0.646,0.064-1.292,0.096-1.938c1.69-0.085,3.465,0.606,5.76-0.892c-2.725-0.249-4.902-0.087-6.804-1.096
		c-0.291-1.904,1.341-1.728,2.322-1.9c1.281-0.226,2.644-0.009,3.628-1.14c0.745-0.078,2.191,0.356,2.013-0.517
		c-0.211-1.033-1.582-0.336-2.463-0.197c-0.315-0.017-0.63-0.033-0.947-0.051c-1.851-2.365,0.312-2.923,2.208-4.057
		c-2.333-0.217-4.182-0.655-5.64-1.997c0.524-0.107,1.048-0.216,1.573-0.323c2.585,0.325,4.766,0.175,7.315-1.379
		c3.979-2.426,8.661-3.696,13.046-5.455C265.875,504.39,264.449,507.601,264.06,510.907z"/>
	<path fill-rule="evenodd" clip-rule="evenodd" fill="#3B836E" d="M264.984,500.964c-4.385,1.759-9.067,3.029-13.046,5.455
		c-2.55,1.554-4.73,1.704-7.315,1.379c2.621-7.541-3.605-4.425-6.492-5.471c3.799,0.672,7.094-0.588,10.181-2.925
		c-0.39-1.117-4.117-0.795-1.527-4.247c2.941-3.919,0.954-5.589-6.2-5.676c3.306,0.3,7.287-0.165,9.208-1.871
		c3.083-2.737,5.942-1.064,8.804-1.418c3.438-0.424,6.966-0.155,10.455-0.136c3.317,0.018,6.634,0.102,9.951,0.157
		c-0.439,2.323-2.457,3.274-3.944,4.75c-2.69,2.667-7.029,3.688-8.08,7.996C266.314,499.627,265.649,500.296,264.984,500.964z"/>
	<path fill-rule="evenodd" clip-rule="evenodd" fill="#3B836E" d="M318.597,538.862c0.082,0.49,0.255,0.984,0.234,1.47
		c-0.571,13.269,2.433,10.242-11.14,10.537c-2.769,0.061-5.178-0.374-3.294-4.179c0.343-0.691,0.216-1.616,0.304-2.406
		c-3.612-0.979-6.416-0.541-7.278,3.613c-0.542,2.61-2.127,3.33-4.676,3.156c-3.147-0.215-6.321-0.086-9.482-0.026
		c-1.36,0.026-2.158-0.598-2.665-1.765c-0.932-2.146,1.139-1.151,1.756-1.588c2.082-1.472,0.134-2.385-0.357-3.503
		c2.31-0.053,1.878-2.998,3.729-3.535c1.824,2.233,3.146,0.144,4.584-0.568c3.455-1.713,6.385-4.487,10.378-5.11
		c1.819-0.274,3.917,0.919,5.414-1.036C310.234,535.655,314.081,538.104,318.597,538.862z"/>
	<path fill-rule="evenodd" clip-rule="evenodd" fill="#3B836E" d="M357.172,536.876c-0.952,8.481-3.505,11.639-11.451,13.412
		c-7.15,1.596-14.146,0.513-20.648-2.67c-2.256-1.104-5.658-3.223-0.784-5.839c0.128-0.068,0.303-0.203,0.311-0.317
		c0.74-11.183,9.048-4.595,14.353-7.152c-0.556,2.682-0.907,4.128-1.144,5.592c-0.237,1.479-0.609,3.134,1.617,3.445
		c1.996,0.278,3.914-0.204,4.322-2.353c0.442-2.33,0.826-4.837-0.674-7.063C347.621,535.639,352.277,536.826,357.172,536.876z"/>
	<path fill-rule="evenodd" clip-rule="evenodd" fill="#161E21" d="M278.986,271.004c0.489-0.096,1.011-0.113,1.461-0.302
		c1.905-0.795,4.103-1.452,5.702-0.146c1.858,1.518,0.749,3.828-0.085,5.538c-4.689,9.609-3.525,20.353-6.011,30.384
		c-0.407,1.641-0.122,3.394-2.402,3.671c-1.13-0.003-2.203-0.141-2.879-1.214c0.39-0.609,0.778-1.219,1.167-1.83
		c2.02,0.145,1.914-1.304,1.992-2.637c0.419-7.134,1.647-14.147,3.263-21.093c0.832-3.577,1.806-7.12,2.991-11.759
		c-10.305,6.507-19.479,12.605-26.484,21.439c-0.796,0.55-0.597,1.399-0.653,2.171c-0.32-0.175-0.641-0.351-0.961-0.525
		c-1.694-5.32,3.824-7.246,5.982-11.479c-3.131,0.452-4.225,3.287-6.705,3.148c-0.377-0.303-0.755-0.605-1.132-0.907
		c10.592-10.128,21.546-19.711,36.101-23.839c1.067,0.416,2.038,0.466,2.686-0.708c0.916-0.671,1.935-0.869,3.041-0.657
		c0.814,1.07,1.426,0.701,1.954-0.273c0.685-0.237,1.369-0.475,2.053-0.712c1.111,1.03,2.074,0.851,2.911-0.355
		c0.439-0.098,0.879-0.195,1.319-0.292c3.744,0.572,7.491,0.509,11.241,0.089c0.466,0.046,0.933,0.092,1.398,0.139
		c4.207,3.118,10.157,2.246,14.033,6.126c-5.651-0.882-10.816-3.489-16.583-4.203c-8.413-1.042-16.283,0.899-24.024,3.432
		c-4.167,1.364-8.969,2.233-11.411,6.755c-2.242,0.042-4.715-0.3-4.995,3.004c-2.402-0.227-3.941,0.983-4.994,3.002
		c-2.676,1.273-6.112,1.871-5.971,6.497c1.582-1.38,2.531-2.716,3.803-3.194c1.724-0.647,2.337-1.591,2.195-3.272
		c2.18-0.146,4.411-0.203,4.999-3.001C276.033,273.634,277.916,272.995,278.986,271.004z"/>
	<path fill-rule="evenodd" clip-rule="evenodd" fill="#002532" d="M239.914,478.046c-1.576-5.814-1.881-11.768-1.96-17.746
		c6.669-0.14,13.338-0.279,20.006-0.419c3.52,5.396,4.542,11.503,5.044,17.758C255.308,477.774,247.611,477.91,239.914,478.046z"/>
	<path fill-rule="evenodd" clip-rule="evenodd" fill="#275C6B" d="M357.172,536.876c-4.895-0.05-9.551-1.237-14.099-2.945
		c-3.711-3.664-9.347-2.755-13.414-5.677c-1.99-1.43-4.552-2.405-0.413-4.256c3.013-1.348-0.778-2.66-0.016-3.994
		c4.536,0.123,9.066,2.262,13.609,0.036c3.021,1.723,6.11,3.338,9.051,5.19C356.154,527.918,358.751,531.481,357.172,536.876z"/>
	<path fill-rule="evenodd" clip-rule="evenodd" fill="#275C6B" d="M371.802,514.018c7.882,0.82,14.455-1.07,18.21-8.794
		c5.871,0.476,6.74,1.426,5.921,5.978c-0.348,1.931-1.036,3.218-3.167,2.752c-5.559-1.214-7.331,1.762-7.661,6.606
		c-0.077,1.121-0.62,2.21-0.948,3.314c-4.019,2.295-5.833,7.642-11.192,8.083l-0.011-0.009c-1.082-1.672-2.775-0.888-4.232-1.054
		c0.155-0.303,0.311-0.604,0.466-0.906c0.438-0.157,0.875-0.313,1.313-0.471c-0.402-0.196-0.806-0.394-1.208-0.59
		c-0.593-0.485-1.185-0.97-2.208-1.807c1.701-0.13,3.026-0.231,4.353-0.332c0.007-0.169,0.013-0.337,0.019-0.505
		c-1.512-0.178-3.024-0.355-5.704-0.671C371.25,522.941,371.367,518.412,371.802,514.018z"/>
	<path fill-rule="evenodd" clip-rule="evenodd" fill="#3B836E" d="M372.964,531.957c5.359-0.441,7.174-5.788,11.192-8.083
		c-0.948,8.439-3.424,16.576-4.915,24.904c-0.365,2.036-1.445,2.249-3.091,2.188c-1.993-0.076-3.992-0.004-5.987-0.014
		c-5.95-0.029-5.956-0.034-4.641-5.622c0.109-0.465,0.633-1.211,0.532-1.292c-4.981-4.01,0.18-5.669,1.854-8.121
		c0.432,1.945,1.407,2.872,2.829,0.896C371.759,535.395,372.241,533.589,372.964,531.957z"/>
	<path fill-rule="evenodd" clip-rule="evenodd" fill="#00CB8B" d="M424.797,504.836c-7.184,0.871-11.477,6.272-16.547,10.487
		c-1.517,1.261-2.835,3.104-5.249,2.711c0.708-3.031,1.416-6.063,2.124-9.096c3.431-1.297,6.156-3.697,9.13-5.732
		c6.274-4.294,12.556-8.68,20.723-8.278c-1.954,3.646-7.233,4.329-8.03,9.007l-0.014,0.012
		C426.011,503.735,425.333,504.113,424.797,504.836z"/>
	<path fill-rule="evenodd" clip-rule="evenodd" fill="#01B078" d="M434.978,494.927c-8.167-0.4-14.448,3.985-20.723,8.279
		c-2.974,2.035-5.699,4.436-9.13,5.732c-0.749-1.631,0.692-2.985,0.571-4.537c6.924-7.731,15.879-11.989,25.717-14.346
		c3.401-0.814,6.783-4.179,10.655-1.105c-1.092,1.277-2.184,2.554-3.275,3.831C437.34,493.174,436.03,493.822,434.978,494.927z"/>
	<path fill-rule="evenodd" clip-rule="evenodd" fill="#275C6B" d="M300.69,534.957c-3.993,0.624-6.923,3.398-10.378,5.111
		c-1.438,0.712-2.76,2.802-4.584,0.568c-1.796-2.462-2.146-4.704,1.042-6.329c1.495-0.762,2.468-2.279,2.185-3.577
		c-0.52-2.375,1.275-3.266,2.182-4.742c3.079,0.288,5.859-0.74,8.611-1.927c1.141-0.492,2.362-1.607,3.383,0.203
		C303.805,528.168,301.207,531.326,300.69,534.957z"/>
	<path fill-rule="evenodd" clip-rule="evenodd" fill="#275C6B" d="M318.597,538.862c-4.516-0.758-8.362-3.207-12.492-4.939
		c0.42-3.772,0.84-7.546,1.26-11.318c0.316,0.081,0.632,0.229,0.949,0.231c6.672,0.06,11.014,2.532,10.495,10.076
		C318.738,534.896,318.667,536.879,318.597,538.862z"/>
	<path fill-rule="evenodd" clip-rule="evenodd" fill="#293540" d="M212.043,258.875c11.782,7.766,22.565,16.88,33.971,25.154
		c1.865,1.352,3.449,3.155,5.804,3.756c-0.7,0.412-1.4,0.824-2.098,1.236c-0.32,0.008-0.643,0.031-0.963,0.069
		c-4.961-3.731-9.952-7.423-14.875-11.204c-7.396-5.681-14.745-11.424-22.114-17.141
		C211.859,260.123,211.951,259.499,212.043,258.875z"/>
	<path fill-rule="evenodd" clip-rule="evenodd" fill="#275C6B" d="M266.979,498.958c1.051-4.308,5.39-5.329,8.08-7.996
		c1.487-1.476,3.505-2.427,3.944-4.75c3.255-0.591,5.239-0.54,4.181,4.034c-2.012,8.696-1.739,8.759-10.753,8.723
		C270.613,498.961,268.796,498.961,266.979,498.958z"/>
	<path fill-rule="evenodd" clip-rule="evenodd" fill="#161E21" d="M393.613,253.782c0.905,0.172,1.9,0.155,2.422,1.142
		c-3.741,3.178-7.378,6.489-11.246,9.501c-6.432,5.008-11.607,11.51-18.737,15.675c-0.707-0.194-1.414-0.389-2.122-0.583
		C373.824,270.938,383.719,262.359,393.613,253.782z"/>
	<path fill-rule="evenodd" clip-rule="evenodd" fill="#293540" d="M330.969,264.979c-3.876-3.88-9.826-3.009-14.033-6.126
		c8.78,1.072,16.412,4.826,23.426,10.026c-0.792,0.032-1.584,0.063-2.376,0.095c0,0-0.019-0.011-0.018-0.01
		c-0.418-0.798-1.135-1.003-1.96-0.99l-0.044-0.029c-0.331-0.32-0.662-0.642-0.992-0.963l-0.004-0.003
		c-1.034-1.262-2.42-1.819-3.995-1.999L330.969,264.979z"/>
	<path fill-rule="evenodd" clip-rule="evenodd" fill="#013761" d="M267.248,534.889c0.789-6.217,5.333-3.125,9.421-4.026
		c-1.536,2.575-2.585,4.333-3.634,6.092C271.106,536.266,269.177,535.577,267.248,534.889z"/>
	<path fill-rule="evenodd" clip-rule="evenodd" fill="#3B836E" d="M243.05,508.121c1.458,1.342,3.307,1.78,5.64,1.997
		c-1.896,1.134-4.059,1.691-2.208,4.057c-2.999,1.513-5.576-1.591-8.523-0.615c1.61-0.829,4.516,0.705,4.764-1.476
		c0.218-1.917-2.618-2.736-4.688-3.718C239.907,507.58,241.481,507.928,243.05,508.121z"/>
	<path fill-rule="evenodd" clip-rule="evenodd" fill="#161E21" d="M359.31,282.804c1.54-1.097,3.082-2.192,4.622-3.288
		c0.706,0.194,1.413,0.389,2.12,0.582c-1.506,1.627-3.011,3.254-4.518,4.881c-2.185-0.417-4.69-0.178-5.786-2.825l0.268-0.213
		C357.067,282.404,358.02,283.249,359.31,282.804z"/>
	<path fill-rule="evenodd" clip-rule="evenodd" fill="#293540" d="M315.537,258.713c-3.75,0.42-7.497,0.483-11.241-0.089
		C308.054,257.265,311.803,257.075,315.537,258.713z"/>
	<path fill-rule="evenodd" clip-rule="evenodd" fill="#275C6B" d="M372.964,531.957c-0.723,1.632-1.205,3.438-2.226,4.856
		c-1.422,1.976-2.397,1.049-2.829-0.896l0.026-0.014c0.516-0.027,1.243,0.329,1.274-0.582c0.004-0.114-0.769-0.255-1.182-0.383
		c0.111-0.648,0.222-1.298,0.333-1.945c1.53-0.348,3.062-0.696,4.592-1.045L372.964,531.957z"/>
	<path fill-rule="evenodd" clip-rule="evenodd" fill="#161E21" d="M267.248,534.889c1.929,0.688,3.858,1.377,5.787,2.065
		c0.1,1.712-0.668,2.614-2.282,1.761C269.206,537.895,265.938,538.397,267.248,534.889z"/>
	<path fill-rule="evenodd" clip-rule="evenodd" fill="#161E21" d="M249.717,289.022c0.7-0.412,1.4-0.824,2.1-1.236
		c0.805-0.775,1.609-1.55,2.414-2.324c0.377,0.302,0.755,0.604,1.127,0.903C254.535,289.492,253.134,291.391,249.717,289.022z"/>
	<path fill-rule="evenodd" clip-rule="evenodd" fill="#3B836E" d="M242.876,521.904c1.086,0,2.173,0,3.885,0
		c-1.791,1.622-3.383,1.995-5.036,2.231c-1.133,0.597-0.781-0.35-0.8-0.811C240.867,521.908,242.038,522.123,242.876,521.904z"/>
	<path fill-rule="evenodd" clip-rule="evenodd" fill="#3B836E" d="M241.929,517.979c1.902,1.009,4.079,0.847,6.804,1.096
		c-2.295,1.498-4.07,0.807-5.76,0.892C242.624,519.305,242.276,518.642,241.929,517.979z"/>
	<path fill-rule="evenodd" clip-rule="evenodd" fill="#161E21" d="M354.216,278.897c0.568,0.479,1.137,0.958,1.705,1.437
		c0.031,0.536,0.063,1.072,0.095,1.608c0,0-0.268,0.213-0.265,0.211c-1.477-1.256-3.982-0.905-4.854-3.109l0.19-0.174
		C352.13,278.879,353.173,278.889,354.216,278.897z"/>
	<path fill-rule="evenodd" clip-rule="evenodd" fill="#293540" d="M354.216,278.897c-1.043-0.009-2.086-0.019-3.13-0.026
		c-0.053-0.858-0.104-1.717-0.155-2.577C352.426,276.657,353.509,277.539,354.216,278.897z"/>
	<path fill-rule="evenodd" clip-rule="evenodd" fill="#00CB8B" d="M401.938,519.898c-0.831,1.983-1.734,3.813-4.341,2.06
		C398.989,521.16,400.111,519.788,401.938,519.898z"/>
	<path fill-rule="evenodd" clip-rule="evenodd" fill="#3B836E" d="M372.953,531.948c-1.53,0.349-3.062,0.697-4.592,1.045
		c-0.193-0.753-0.555-1.535,0.359-2.099C370.178,531.061,371.871,530.276,372.953,531.948z"/>
	<path fill-rule="evenodd" clip-rule="evenodd" fill="#293540" d="M356.016,281.942c-0.032-0.536-0.063-1.072-0.095-1.608
		c1.535,0.267,2.328,1.551,3.389,2.47C358.02,283.249,357.067,282.404,356.016,281.942z"/>
	<path fill-rule="evenodd" clip-rule="evenodd" fill="#161E21" d="M350.931,276.294c0.051,0.859,0.103,1.718,0.155,2.577
		c0.002-0.001-0.188,0.173-0.188,0.173c-1.114-1.057-2.119-2.321-3.92-2.083c0.005-0.666,0.011-1.332,0.016-1.998
		c1.061,0.39,2.012,1.191,3.263,0.868C350.618,275.785,350.843,275.939,350.931,276.294z"/>
	<path fill-rule="evenodd" clip-rule="evenodd" fill="#293540" d="M350.256,275.832c-1.251,0.323-2.202-0.479-3.263-0.868
		c0,0-0.005,0.002-0.006,0.002c-0.021-0.549-0.04-1.097-0.061-1.646C348.449,273.609,349.501,274.523,350.256,275.832z"/>
	<path fill-rule="evenodd" clip-rule="evenodd" fill="#293540" d="M302.977,258.917c-0.837,1.206-1.8,1.386-2.911,0.355
		C300.973,258.631,301.965,258.694,302.977,258.917z"/>
	<path fill-rule="evenodd" clip-rule="evenodd" fill="#293540" d="M298.013,259.984c-0.528,0.975-1.14,1.344-1.954,0.273
		C296.71,260.166,297.362,260.075,298.013,259.984z"/>
	<path fill-rule="evenodd" clip-rule="evenodd" fill="#161E21" d="M346.927,273.319c0.021,0.549,0.04,1.097,0.061,1.646
		c-1.074-0.546-2.337-0.813-2.978-2.003c0.756-0.047,1.512-0.093,2.268-0.139C346.652,272.781,346.869,272.946,346.927,273.319z"/>
	<path fill-rule="evenodd" clip-rule="evenodd" fill="#293540" d="M346.277,272.823c-0.756,0.046-1.512,0.092-2.268,0.139
		c0.001-0.001-0.034-0.013-0.034-0.013c-0.011-0.575-0.022-1.151-0.034-1.728C344.996,271.352,345.809,271.837,346.277,272.823z"/>
	<path fill-rule="evenodd" clip-rule="evenodd" fill="#161E21" d="M337.985,268.973c0.792-0.031,1.584-0.063,2.376-0.095
		c0.261,0.154,0.493,0.346,0.696,0.574C339.622,271.934,338.826,270.312,337.985,268.973z"/>
	<path fill-rule="evenodd" clip-rule="evenodd" fill="#161E21" d="M212.043,258.875c-0.092,0.623-0.184,1.247-0.275,1.87
		c-0.383-0.033-0.765-0.065-1.147-0.098c-0.414-0.58-0.828-1.16-1.242-1.74C210.245,257.131,211.138,257.524,212.043,258.875z"/>
	<path fill-rule="evenodd" clip-rule="evenodd" fill="#293540" d="M293.018,260.915c-0.648,1.174-1.619,1.124-2.686,0.708
		C291.087,260.853,291.977,260.598,293.018,260.915z"/>
	<path fill-rule="evenodd" clip-rule="evenodd" fill="#3B836E" d="M247.428,514.226c0.881-0.139,2.251-0.836,2.463,0.197
		c0.179,0.873-1.268,0.438-2.013,0.517C247.609,514.776,247.459,514.538,247.428,514.226z"/>
	<path fill-rule="evenodd" clip-rule="evenodd" fill="#161E21" d="M343.941,271.222c0.012,0.576,0.023,1.152,0.034,1.728
		c-0.94-0.458-1.005-1.303-0.966-2.192C343.32,270.911,343.631,271.066,343.941,271.222z"/>
	<path fill-rule="evenodd" clip-rule="evenodd" fill="#00CB8B" d="M403.042,517.986c0.999,1.459-0.151,1.658-1.141,1.952
		C401.602,518.891,401.925,518.206,403.042,517.986z"/>
	<path fill-rule="evenodd" clip-rule="evenodd" fill="#3B836E" d="M368.028,534.938c0.413,0.128,1.186,0.269,1.182,0.383
		c-0.031,0.911-0.759,0.555-1.274,0.582C367.995,535.584,368.025,535.263,368.028,534.938z"/>
	<path fill-rule="evenodd" clip-rule="evenodd" fill="#3B836E" d="M369.291,528.928c0.402,0.196,0.806,0.394,1.208,0.59
		c-0.438,0.157-0.875,0.313-1.313,0.471C369.222,529.635,369.256,529.281,369.291,528.928z"/>
	<path fill-rule="evenodd" clip-rule="evenodd" fill="#F8F9F9" d="M257.959,459.881c-6.668,0.14-13.336,0.279-20.006,0.419
		c-24.039-0.332-48.077-0.974-72.116,0.014c-2.488-0.069-4.976-0.188-7.464-0.197c-9.277-0.034-12.149-2.854-12.255-12.099
		c1.563-1.604,0.965-2.24-0.809-3.471c-5.397-3.741-5.638-8.521-1.118-13.362c0.652-0.698,1.868-1.98,1.751-2.124
		c-3.67-4.526-0.502-9.238-0.068-13.655c0.592-6.026,1.874-11.908,0.105-17.926c-0.203-0.691,0.053-1.764,0.499-2.355
		c2.078-2.753,2.558-6.095,3.356-9.25c0.829-3.279,2.615-5.086,5.768-6.055c1.609-0.494,3.144-0.875,4.83-0.877
		c10.654-0.013,21.321,0.204,31.954-0.282c3.547-0.162,6.389,2.731,9.873,1.444c3.505-1.295,7.136-1.269,10.781-1.293
		c6.321-0.043,12.642-0.126,18.963-0.191c2.498,0.277,4.841,1.018,6.996,2.327c5.235,5.059,1.238,11.282,1.986,17.242
		c12.44-1.649,24.768,1.339,37.061-0.608c2.336,0.024,4.674,0.049,7.01,0.073c0.331,0.012,0.662,0.023,0.993,0.035
		c7.519,0.401,15.376-0.772,21.821,4.647c1.065,0.896,2.087-0.054,2.62-0.442c4.55-3.325,10.047-3.23,15.122-3.701
		c7.805-0.724,16.021-1.892,22.853,3.84c0.95,0.798,1.539,0.565,2.577,0.155c13.382-5.294,26.983-6.78,40.809-1.799
		c1.195,0.43,1.826-0.298,2.678-0.48c13.733-2.936,27.393-4.354,40.757,1.604c1.096,0.489,1.851-0.152,2.774-0.269
		c8.163-1.025,16.253-3.014,24.561-2.356c8.081,0.639,16.069,5.346,17.567,14.512c0.854,5.227-1.446,9.62-1.822,14.446
		c-0.752,4.032-1.505,8.065-2.258,12.098c-1.198,3.301-2.397,6.603-3.595,9.902c-1.549,1.611-3.099,3.224-4.647,4.835
		c-3.652,1.737-7.306,3.475-10.958,5.213c-3.656,0.107-7.312,0.215-10.967,0.323c-5.24-0.855-11.07,0.299-15.028-4.82
		c-1.08-1.396-1.944,0.414-2.781,0.944c-3.849,2.438-7.976,3.799-12.576,3.785c-13.576-0.041-27.168,0.358-40.724-0.162
		c-7.563-0.29-15.065,0.427-22.599,0.175c-3.147-0.104-6.292-0.03-9.294-1.189c0,0,0.035,0.027,0.035,0.026
		c-0.128-0.574-0.421-0.94-1.074-0.857c-1.017-0.726-1.129-2.773-3.404-1.496c-6.026,3.383-12.941,3.327-19.536,4.489
		c-2.469-0.881-4.99-1.638-7.393-2.671c-3.831-1.646-6.866-2.838-11.236,0.387c-4.384,3.235-10.623,1.184-16.043,1.104
		c-8.221-0.121-16.496,1.051-24.664-0.875C259.161,458.947,258.519,459.589,257.959,459.881z M270.93,417.245
		c-1.479,0.083-2.959,0.166-4.439,0.249c0.008,0.076,0.016,0.151,0.024,0.228c1.465-0.196,2.93-0.394,4.395-0.59
		c0.406,0.136,0.812,0.271,1.217,0.407c0.018,0.503,0.035,1.005,0.053,1.507c-2.228,0.873-4.872,0.261-6.879,1.925
		c0.606,3.652,4.98-0.006,5.9,3.039l-0.182,0.183c-1.565,0.919-1.968,2.218-1.264,3.877c-0.054,2.408-0.273,4.731-2.921,5.842
		c-4.645,2.641,1.356,1.901,1.009,3.177c-1.178,4.584-2.356,9.169-3.681,14.324c0.704,0.865,2.713,0.454,4.399,0.429
		c11.94-0.185,9.491,2.876,11.774-9.886c0.349-1.653,0.698-3.307,1.047-4.961c0.565-1.992,1.131-3.985,1.696-5.978
		c2.258,0.013,4.517,0.025,6.775,0.038c-1.14,1.102-3.13,1.015-2.633,3.976c0.496,2.954-0.309,6.42-2.159,9.244
		c-5.221,0.752,0.887,3.765-1.065,5.599c-0.8,0.752,0.773,2.142,2.377,2.096c1.973-0.056,3.974-0.199,5.919,0.046
		c3.971,0.5,5.905-0.916,5.391-5.065c0.911-3.797,1.896-7.576,2.71-11.394c0.771-3.619-0.502-6.022-4.408-6.589l-0.035-0.013
		c-0.106-0.305-0.174-0.618-0.201-0.94c6.088-1.195,8.125-5.396,8.197-11.054c0.783-1.665,0.986-3.322-0.079-4.959
		c0.063-0.854-0.079-1.608-0.969-1.999c-0.866-2.43-3.062-2.956-5.153-3.204c-9.07-1.079-18.145-1.505-27.871,0.534
		c3.952,1.026,3.952,1.026,3.875,3.854c-0.334-0.025-0.57,0.114-0.709,0.419c-0.102-0.029-0.203-0.059-0.305-0.087
		c0.104-0.009,0.209-0.018,0.314-0.025c0.307,0.513,0.613,1.026,0.92,1.54c-2.418,0.82-1.638,2.919-1.853,4.617
		C271.722,417.515,271.326,417.38,270.93,417.245z M183.044,418.19c-0.259,0.03-0.517,0.061-0.776,0.091
		c0.148,0.301,0.296,0.602,0.445,0.902c-0.079,0.335-0.022,0.645,0.17,0.93l-0.302,0.262l0.176,0.358
		c0.083,1.412,0.167,2.823,0.25,4.235c-1.121,1.419-0.766,2.771,0.414,3.854c0.711,0.653,1.338,1.429,0.162,1.686
		c-4.641,1.017-0.877,2.959-0.608,4.505c-0.278,0.244-0.557,0.488-0.836,0.732c0.233,0.142,0.467,0.283,0.699,0.425
		c0.331,0.017,0.662,0.033,0.992,0.05l-0.146,0.092c-0.158,0.254-0.104,0.448,0.162,0.584c-0.035,0.333-0.07,0.666-0.104,0.999
		c-2.561,2.278-1.615,5.36-1.869,8.167c-1.617,1.804-0.52,2.478,1.205,2.889c-0.767,1.289-2.604,2.953,0.962,2.712
		c0.953-0.064,1.909-0.08,2.862-0.118c1.99,0.721,4.018,0.444,6.043,0.234c1.548-0.351,1.033-1.688,1.271-2.663
		c2.298-4.913,4.443-9.886,5.902-15.127c1.322-2.188,2.274-4.52,2.744-7.04c1.378-2.859,2.832-5.689,3.302-8.887
		c0.743-1.644,1.32-3.391,2.265-4.909c1.742-2.798,2.07-0.37,2.677,0.847c-1.514,3.187-2.306,6.581-2.872,10.038
		c-0.597,1.011-1.773,2.109,0.407,2.702c-0.134,0.781-0.268,1.563-0.402,2.344c-1.779,0.216-1.479,1.787-2.031,2.893
		c-1.712,3.43,0.983,7.074-0.693,10.442c-3.839,1.845-2.174,5.664-3.074,8.564c5.411,2.07,10.992,0.614,16.493,0.799
		c1.69-1.981,1.737-4.41,1.859-6.817c1.072-3.603,2.189-7.195,2.274-11.002c2.277-6.13,2.305-12.73,3.976-18.987
		c1.329-5.952,2.851-11.871,2.983-18.021c2.646-1.222,1.886-3.981,2.668-6.028c1.072-2.809,0.403-4.151-3.061-3.976
		c-5.789,0.292-11.603,0.073-17.406,0.099c-5.483,0.023-9.488,5.523-8.007,10.957c-0.816,0.89-2.512,1.205-1.953,2.991
		c-0.206,0.271-0.412,0.54-0.617,0.81c-0.131,0.1-0.295,0.178-0.383,0.307c-0.063,0.093-0.061,0.358-0.028,0.369
		c1.299,0.428,2.605,0.836,3.703,1.181c-0.82,2.937-3.997,3.127-6.362,4.979c2.145,1.193,4.1,0.456,5.847,0.793
		c-1.453,2.956-4.481,0.877-6.587,1.988c-0.07,1.223,2.379,0.697,1.604,2.331c-1.374-0.059-2.453,0.584-3.438,1.448
		c-0.637-0.069-1.274-0.139-1.91-0.209c0.145-4.659,0.289-9.318,0.434-13.979c0.163-3.641,0.222-7.29,0.524-10.919
		c0.205-2.459-0.768-3.176-3.106-3.09c-7.949,0.292-15.922-0.435-23.858,0.54c-3.07-0.137-6.14-0.272-9.209-0.409
		c-0.003,0.113-0.007,0.226-0.011,0.339c3.077,0,6.153,0,9.23,0c0.915,3.711-1.609,4.029-4.212,4.268
		c-2.326-0.911-4.477-0.687-6.753,1.047c2.472,0,4.594,0,6.716,0c2.288,0.219,4.654,0.141,6.583,1.98
		c-3.251-1.21-2.56,2.538-3.428,2.863c-2.169,0.813-4.846,0.268-7.32,0.268c3.128,0.722,6.089,1.554,9.091,2.135
		c-3.432,2.067-4.2,8.307-10.412,6.271c2.929,0.615,5.711,0.456,8.18,2.241c-2.044,1.155-3.83,2.588-2.695,5.38
		c-2.324,3.304-1.375,9.873-9.437,7.673c3.523,3.048,8.015,1.927,9.508,5.896c-1.35,1.496-4.538,0.692-5.015,3.614
		c-0.002,1.576-0.004,3.154-0.007,4.732c-0.646,0.137-1.006,0.456-0.755,1.17c-2.614,0-5.227,0-9.323,0
		c4.1,1.1,7.145,0.762,9.318,2.93c-1.765,3.792-1.77,7.938-2.057,12.02c4.274,0,8.909,0.033,13.543-0.022
		c1.204-0.015,2.875,0.526,3.121-1.464c0.642-5.203,3.319-10.124,2.173-15.574c3.099-6.07,3.163-13.096,6.053-19.229
		c1.163,0.445,2.144,1.073,2.422,2.408L183.044,418.19z M321.798,438.92c0.656-1.594,1.241-3.202,1.017-4.976
		c2.277-5.521,1.272-11.621,3.138-17.269c1.085-3.282,3.369-2.856,5.537-2.562c2.905,0.395,1.183,2.407,0.936,3.819
		c-0.45,2.57-0.954,5.131-1.503,8.06c2.172,0,4.148-0.001,6.125,0c7.747,0.003,7.747,0.003,8.719-7.564
		c1.033-8.055-2.617-12.389-10.86-12.301c-4.622,0.05-9.236,0.806-13.854,1.243c-2.245-0.353-4.132,0.117-5.27,2.301
		c-0.767,0.539-1.533,1.079-2.301,1.619c2.39,2.917,1.201,4.354-2.043,4.938c0.283,0.84,1.027,0.608,1.632,0.7
		c-0.365,2.777-2.512,0.822-3.602,1.477c0.915,0.511,4.007-0.457,1.715,2.603c-0.99,1.321,0.813,0.379,1.056,0.834
		c-1.165,0.89-0.375,2.997-2.177,3.489c-0.237,0.085-0.476,0.17-0.713,0.254c0.247-0.132,0.494-0.264,0.741-0.396
		c-0.389,2.598-0.776,5.194-1.165,7.791c0.314,2.386,0.283,4.701-1.191,6.783c-0.285,0.403-2.135-0.326-0.869,1.092
		c0.314,0.354,1.249,0.154,1.898,0.209c-1.314,2.328-0.621,4.246,1.213,5.932c3.74,4.951,11.578,6.477,19.971,3.886
		c2.287-1.096,4.689-2.002,6.829-3.333c2.744-1.704,6.729-10.297,5.288-12.257c-2.07-2.819-5.675-0.749-8.553-1.29
		c-0.16-0.029-0.334,0.019-0.495-0.007c-2.696-0.439-4.183,0.335-4.373,3.424c-0.181,2.939-1.302,5.677-3.687,7.683
		c-1.391-0.076-2.787-0.137-3.904-1.146C321.301,442.277,321.55,440.598,321.798,438.92z M467.755,435.922
		c0.629-1.94,1.421-3.849,1.19-5.96c0.511-1.973,0.443-3.923,1.387-5.986c3.732-8.173,1.62-13.623-5.447-15.784
		c-0.482-0.696-1.182-0.864-1.973-0.811c-1.313-0.049-2.624-0.098-3.937-0.146c-2.786,0.251-5.576,0.478-8.36,0.764
		c-1.326,0.137-3.615,0.061-3.81,0.638c-1.659,4.934-5.59,4.8-9.496,4.76c1.078,0.724,3.648-0.837,3.519,1.298
		c-0.145,2.372-2.561,1.646-4.215,1.576c0.972,0.842,3.171-0.558,3.494,1.713c-0.26,0.133-0.364,0.343-0.315,0.63
		c-2.17,0.219-1.833,1.16-0.676,2.339c-0.051,0.694-0.102,1.388-0.154,2.079c-2.361,0.057-4.722,0.114-7.082,0.171
		c-0.06-2.78,1.583-5.37,0.917-8.217c0.893-3.502-0.523-6.205-3.726-7.168c-9.208-2.77-18.624-2.409-28.005-0.842
		c-0.579,0.097-4.518,0.199-0.813,2.321c-1.862,2.964,0.298,7.922-4.446,9.303c0.521,0.104,1.539,0.001,1.863,0.427
		c1.033,1.357-0.885,10.392-2.248,11.321c-1.065,0.727-0.789,3.376,0.479,4.589c-0.929,0.236-1.856,0.473-2.785,0.709
		c3.184,5.613-1.604,10.485-1.331,15.764c1.505,0.149,3.152,0.496,4.786,0.443c7.567-0.242,15.192,1.11,22.699-0.795
		c3.261-0.319,5.525-1.941,6.631-5.075c1.953-3.071,2.4-6.569,2.854-10.063c0.522-1.621,1.28-3.194,1.015-4.976
		c1.692-2.177,0.705-5.122,2.115-7.38c2.052,1.058,5.548-1.943,6.465,2.302c-1.796,2.759-1.087,6.064-1.974,9.021
		c-0.754,1.204-1.725,2.144-3.58,2.555c1.421,0.844,4.997,0.442,1.856,3.185c-1.117,0.977,0.843,1.525,0.722,2.473
		c-0.844,0.396-1.379,1.054-0.933,1.945c1.464,2.926,2.925,5.715,6.87,6.081c6.067,0.563,12.259,2.846,17.669-2.05
		C466.265,447.598,466.955,441.723,467.755,435.922z M385.026,420.988c0.692-1.339,0.672-2.697,0.114-4.071
		c0.575-1.281,0.611-2.59,0.194-3.921c0.007-2.375,2.363-5.892-1.156-6.73c-3.934-0.936-8.258-0.305-12.41-0.211
		c-3.734,0.083-8.211-1.51-9.146,4.809c-0.146,0.981-4.687,1.313-6.455,1.759c1.326,0.771,4.76-1.546,5.362,1.062
		c0.693,2.995-2.968,3.095-5.464,3.584c1.376,1.39,4.435,0.039,4.167,2.031c-0.381,2.829-2.913,4.523-5.851,5.211
		c1.408,0.146,3.819,0.213,2.576,1.699c-2.336,2.792-0.8,7.103-4.185,9.144c-1.394,0.841-0.678,1.564-0.017,2.35l0.035,0.018
		c-1.159,0.55-2.317,1.1-4.001,1.897c1.321,0.24,2.114,0.384,2.908,0.527c-0.497,2.988-3.337,5.084-3.107,8.41
		c0.06,0.866-2.497-0.422-2.017,1.466c0.426,1.674,1.821,2.051,3.47,1.946c2.301-0.145,4.613-0.128,6.921-0.18
		c4.044,0.9,6.707-0.175,6.877-4.813c2.451-2.406,4.898-3.908,7.324,0.031c-2.396,3.198-1.843,4.955,2.399,4.896
		c2.463-0.034,4.926-0.081,7.388-0.121c1.005-0.027,2.01-0.055,3.015-0.081c0.581,0.068,0.907-0.052,0.523-0.702
		c0.047-4.025,0.093-8.051,0.139-12.075c0.267-2.047,0.951-4.143-0.7-5.965C383.521,428.897,385.661,425.069,385.026,420.988z
		 M239.958,410.933c-1.785,0.178-3.569,0.355-5.23,0.521c1.158,0.721,3.322-0.945,4.043,1.428c-1.138,0.512-2.274,1.023-3.58,1.611
		c0.767,0.885,2.739-0.14,2.437,2.797c-0.337,3.277-2.676,2.018-3.605,3.22c0.818,0.968,3.946,0.382,2.828,2.039
		c-2.813,4.17-1.014,9.384-3.741,13.393c-1.518,3.439-0.691,7.222-1.66,10.832c-0.858,3.199,0.881,5.516,4.974,5.267
		c4.63-0.282,9.292-0.062,13.939-0.059c4.933,0.004,6.72-2.05,6.609-7.097c-0.04-1.798-0.977-1.786-2.173-1.836
		c-2.627-0.11-5.929,0.726-7.729-0.553c-3.004-2.133,1.838-4.817,0.754-7.575c1.721-3.664,4.98-1.608,7.512-1.863
		c4.848-0.487,2.85-4.474,3.583-6.823c1.05-3.362-2.087-1.742-3.464-2.195c-1.522-0.499-3.884,1.208-4.574-1.307
		c-1.475-5.379,0.5-7.721,6.196-7.735c0.999-0.003,2.024,0.145,2.993-0.028c4.325-0.772,2.782-4.71,3.392-7.177
		c0.688-2.78-2.191-1.666-3.49-1.684c-6.324-0.087-12.65,0.04-18.975,0.092c-2.093,0-4.186,0-6.669,0
		c1.953,0.789,4.299,0.14,4.641,2.76C237.082,410.728,240.932,409.622,239.958,410.933z"/>
	<path fill-rule="evenodd" clip-rule="evenodd" fill="#007751" d="M478.367,427.846c0.376-4.826,2.676-9.22,1.822-14.446
		c-1.498-9.166-9.486-13.873-17.567-14.512c-8.308-0.657-16.397,1.331-24.561,2.356c-0.924,0.116-1.679,0.758-2.774,0.269
		c-13.364-5.959-27.023-4.54-40.757-1.604c-0.852,0.183-1.482,0.91-2.678,0.48c-13.825-4.981-27.427-3.495-40.809,1.799
		c-1.038,0.41-1.627,0.643-2.577-0.155c-6.831-5.731-15.048-4.563-22.853-3.84c-5.075,0.471-10.572,0.376-15.122,3.701
		c-0.533,0.389-1.555,1.338-2.62,0.442c-6.445-5.42-14.302-4.246-21.822-4.647c-0.057-0.25-0.12-0.499-0.188-0.746
		c-6.385-8.193-12.963-16.212-20.881-23.014l0.034,0.048c-0.344-0.352-0.688-0.703-1.031-1.055l0.044,0.044
		c-0.026-0.824-0.262-1.533-1.059-1.937c-0.715-1.486-1.654-2.976,0.041-4.438c3.349-2.889,6.759-5.709,10.03-8.683
		c3.099-2.816,6.789-5.038,8.998-8.769c3.288-0.902,4.925-3.717,6.995-6.031c0.972-0.393,1.945-0.783,2.918-1.173
		c3.842,4.588,9.108,4.071,14.256,3.975c3.648,2.222,4.896,6.604,8.234,9.128c1.864,1.409,3.25,4.45,6.157,1.776
		c2.521-2.317,0.894-4.187-0.542-6.482c-1.854-2.96-5.258-4.722-6.177-8.316c2.523,0.408,4.453-0.885,6.396-2.191
		c5.616-3.774,10.252-8.967,16.788-11.42c6.336-2.377,10.76-7.042,14.374-12.552c4.288-6.535,10.438-10.46,17.689-12.897
		c1.322,1.207,2.667,2.389,3.961,3.626c1.646,1.571,3.386,1.927,5.257,0.464c1.974-1.544,1.637-3.373,0.491-5.219
		c-0.602-0.967-1.291-1.877-1.941-2.814c2.991-4.282,7.228-7.273,11.212-10.459c6.299-5.036,8.145-4.775,13.924,1.002
		c17.368,17.365,33.924,35.497,50.605,53.514c15.208,16.425,30.742,32.549,46.221,48.723c4.107,4.292,8.311,8.516,14.822,9.164
		c6.768,0.673,13.52,1.34,20.332,0.965c0.986,0.656,1.974,1.313,2.961,1.969c-0.314,0.886-1.056,1.068-1.869,1.131
		c-5.998-1.93-12.184-0.622-18.263-1.084c-5.289-0.402-9.85,1.4-13.774,4.618c-5.742,4.71-11.25,9.705-16.816,14.626
		C483.909,425.248,481.809,427.662,478.367,427.846z"/>
	<path fill-rule="evenodd" clip-rule="evenodd" fill="#005976" d="M232.005,378.62c-6.321,0.065-12.642,0.148-18.963,0.191
		c-3.645,0.024-7.276-0.002-10.781,1.293c-3.483,1.287-6.326-1.606-9.873-1.444c-10.633,0.486-21.3,0.269-31.954,0.282
		c-1.686,0.002-3.221,0.383-4.83,0.877c-3.153,0.969-4.939,2.776-5.768,6.055c-0.798,3.156-1.278,6.497-3.356,9.25
		c-0.446,0.592-0.702,1.664-0.499,2.355c1.769,6.018,0.486,11.899-0.105,17.926c-0.434,4.417-3.602,9.129,0.068,13.655
		c0.116,0.144-1.1,1.426-1.751,2.124c-4.52,4.842-4.279,9.621,1.118,13.362c1.774,1.23,2.371,1.866,0.809,3.471
		c-12.564-9.372-25.069-18.828-37.73-28.068c-3.651-2.664-6.357-6.986-11.567-7.169c7.853-12.095,16.57-23.582,25.374-34.969
		c10.394-13.445,18.466-28.609,30.422-40.88c2.165,0.225,3.234-1.421,4.557-2.646c4.002-3.704,8.113-7.297,11.998-11.121
		c10.025-9.869,20.106-19.689,29.861-29.823c5.958-6.188,12.637-9.243,18.384-5.887c7.225,4.22,14.453,8.771,19.591,15.739
		c-0.022,1.479-1.217,2.247-1.958,3.306c-1.499,2.144-3.67,4.677-0.72,6.841c2.914,2.138,5.237-0.095,7.001-2.457
		c1.641-2.197,2.943-4.669,5.398-6.144c3.979,3.157,8.848,5.216,11.854,9.573c4.767,6.91,11.617,8.543,19.449,7.704
		c0.257,1.618,0.514,3.236,0.772,4.855c-14.777,3.345-29.521,6.861-44.355,9.932c-4.51,0.934-6.403,2.772-5.321,7.296
		C230.086,355.606,231.045,367.113,232.005,378.62z"/>
	<path fill-rule="evenodd" clip-rule="evenodd" fill="#013761" d="M229.127,344.101c-1.082-4.523,0.812-6.362,5.321-7.296
		c14.835-3.071,29.579-6.587,44.355-9.932c0.764,7.466,1.492,14.938,3.233,22.265c-2.208,3.733-5.898,5.955-8.997,8.771
		c-3.271,2.973-6.682,5.794-10.03,8.683c-1.695,1.462-0.755,2.953-0.041,4.438c0.05,0.812,0.236,1.549,1.059,1.938
		c0,0-0.044-0.044-0.043-0.044c0.343,0.353,0.687,0.703,1.031,1.055l-0.034-0.048c-0.231,1.817,0.896,3.003,1.766,4.443
		c3.843,6.355,8.533,12.221,11.3,19.208c-12.293,1.947-24.621-1.041-37.061,0.608c-0.748-5.96,3.249-12.183-1.986-17.242
		c-0.035-1.154,0.133-2.359-0.137-3.456c-2.666-10.836-5.39-21.66-8.177-32.465C230.58,344.611,229.665,344.405,229.127,344.101z"/>
	<path fill-rule="evenodd" clip-rule="evenodd" fill="#00875C" d="M369.13,302.955c-7.254,2.437-13.403,6.362-17.691,12.897
		c-3.614,5.51-8.038,10.174-14.374,12.552c-6.536,2.453-11.172,7.646-16.788,11.42c-1.943,1.307-3.873,2.6-6.396,2.191
		c-1.873-2.165-4.94-3.448-5.093-6.886c3.927-1.488,7.528-3.515,10.278-6.745c4.375-5.14,9.739-8.866,15.752-11.857
		c6.002-2.985,7.763-7.27,6.141-13.825c2.828-1.681,4.708-3.894,4.185-7.457c0.594-0.487,1.188-0.973,1.783-1.458
		c1.611-0.001,3.224-0.002,4.837-0.003c3.252,3.041,6.445,3.134,9.164,0.266C364.025,296.684,366.687,299.718,369.13,302.955z"/>
	<path fill-rule="evenodd" clip-rule="evenodd" fill="#01B078" d="M340.958,302.703c1.622,6.556-0.139,10.84-6.141,13.825
		c-6.013,2.991-11.377,6.717-15.752,11.857c-2.75,3.229-6.352,5.256-10.278,6.745c-1.668-1.694-3.315-3.401-3.762-5.879
		c3.817-2.073,7.076-4.84,10.004-8.021c2.221-0.724,4.174-1.759,4.887-4.227c0.164-0.3,0.22-0.618,0.168-0.955l0.038,0.062
		c2.307-0.529,3.611-2.275,4.897-4.042c2.908,0.365,5.246-0.278,7.763-2.225C335.671,307.609,337.8,304.565,340.958,302.703z"/>
	<path fill-rule="evenodd" clip-rule="evenodd" fill="#00759A" d="M278.031,322.018c-7.832,0.839-14.682-0.794-19.449-7.704
		c-3.006-4.357-7.875-6.416-11.852-9.572c0.094-2.634,2.171-3.995,3.677-5.722c0.663-0.066,1.326-0.132,1.989-0.198
		c3.776,1.055,6.864,3.077,8.776,6.569c3.606,6.588,8.772,10.042,16.533,8.505C277.815,316.603,277.923,319.311,278.031,322.018z"/>
	<path fill-rule="evenodd" clip-rule="evenodd" fill="#161E21" d="M319.916,317.002c-0.713,2.468-2.666,3.503-4.888,4.227
		c-4.612-0.507-8.404,2.703-12.873,2.842c-1.592-0.345-3.857,0.625-4.205-2.15c1.402,0.403,2.95,2.224,4.036-0.418
		c10.328-0.889,16.925-5.604,18.712-16.55c1.376-8.43,3.314-16.72,0.146-25.069c-3.816-10.056-13.89-14.38-22.242-9.636
		c-1.529,0.868-2.904,2.006-4.35,3.02l-0.343-0.328c1.218-6.385,13.127-10.613,20.701-4.947
		c9.993,7.479,10.936,17.472,10.112,28.685c-0.5,6.826-4.186,12.704-4.601,19.431c0.001,0.001-0.037-0.061-0.038-0.062
		C319.298,316.239,319.243,316.557,319.916,317.002z"/>
	<path fill-rule="evenodd" clip-rule="evenodd" fill="#161E21" d="M340.958,302.703c-3.158,1.862-5.287,4.906-8.176,7.14
		c-2.517,1.946-4.854,2.59-7.763,2.225c0.028-6.598,2.598-12.898,2.084-19.602c-0.325-4.236,0.089-8.528,0.171-12.795
		c3.979,5.59,2.785,11.847,2.084,17.937c-0.474,4.119-1.599,8.163-2.433,12.241c5.646-3.55,10.369-7.65,15.108-11.731
		c1.11-0.957,0.917-1.867,0.288-3.057c-3.271-6.191-6.962-12.094-11.591-17.373c-0.765-0.872-1.669-2.014-2.908-1.511
		c-1.807,0.733-0.24,2.332-0.543,3.498c-2.386-1.575-1.904-4.523-0.716-5.484c1.213-0.98,3.933-0.766,5.653,1.2
		c3.022,3.454,6.122,6.818,8.038,11.065c0.549,1.217,1.051,2.497,2.71,2.53l-0.004-0.004c0.728,2.088,1.454,4.178,2.182,6.267
		C345.666,298.809,343.786,301.022,340.958,302.703z"/>
	<path fill-rule="evenodd" clip-rule="evenodd" fill="#008FBE" d="M277.707,313.896c-7.761,1.537-12.927-1.917-16.533-8.505
		c-1.912-3.493-5-5.515-8.77-6.568c0.855-1.708,1.948-3.202,3.683-4.124c0.321,0.176,0.641,0.352,0.96,0.525
		c5.907,4.569,11.815,9.139,17.724,13.708c0.678,1.075,1.751,1.213,2.881,1.216C277.669,311.398,277.688,312.647,277.707,313.896z"
		/>
	<path fill-rule="evenodd" clip-rule="evenodd" fill="#005976" d="M286.967,330.963c-0.497-2.318-1.265-4.601-0.917-7.028
		c2.047,0.001,4.096,0.001,6.145,0.002c3.12,3.175,5.008,7.114,6.869,11.07c-0.971,1.478-2.025,2.849-3.966,3.08
		C292.731,335.318,290.811,332.043,286.967,330.963z"/>
	<path fill-rule="evenodd" clip-rule="evenodd" fill="#161E21" d="M351.763,293.785c-1.613,0.001-3.226,0.002-4.837,0.004
		c-1.248-1.664-0.676-4.826-3.964-4.809l0.004,0.004c-0.008-1.328-0.016-2.656-0.023-3.984c0.303-0.299,0.605-0.597,0.908-0.896
		c1.838,1.531,2.588,3.772,3.726,5.756c0.842,1.47,1.758,2.598,3.217,0.696c0.921-1.2,3.921-1.901,1.512-4.135
		c-2.292-2.126-4.774-4.085-7.36-5.842c-1.757-1.194-2.828-0.635-2.187,1.701c-0.275,0.244-0.55,0.488-0.825,0.732
		c-2.399-4.657-2.116-4.936,5.147-5.092c1.433,1.974,3.088,3.664,5.22,4.95c2.807,1.691,4.62,4.017,3.636,7.598
		C354.414,291.41,352.283,291.585,351.763,293.785z"/>
	<path fill-rule="evenodd" clip-rule="evenodd" fill="#00875C" d="M295.098,338.086c1.94-0.23,2.995-1.602,3.966-3.08
		c2.857,3.323,5.404,6.848,7.142,10.905c-5.146,0.095-10.412,0.612-14.254-3.976C293,340.652,294.049,339.37,295.098,338.086z"/>
	<path fill-rule="evenodd" clip-rule="evenodd" fill="#013761" d="M355.936,290.468c0.984-3.581-0.829-5.906-3.636-7.598
		c-2.132-1.286-3.787-2.976-5.22-4.95c-0.069-0.316-0.104-0.636-0.103-0.959c1.801-0.238,2.806,1.026,3.92,2.083
		c0.871,2.204,3.377,1.853,4.854,3.109c1.093,2.649,3.599,2.41,5.784,2.827c1.086,0.698,2.171,1.395,3.254,2.093
		c0.346,0.649,0.69,1.3,1.036,1.949c-2.81-0.044-4.749,1.246-5.846,3.824C358.632,292.054,357.283,291.261,355.936,290.468z"/>
	<path fill-rule="evenodd" clip-rule="evenodd" fill="#293540" d="M301.986,321.502c-1.085,2.642-2.634,0.821-4.036,0.418
		c-5.611-7.005-8.471-15.153-9.939-23.882c0.335-0.354,0.67-0.706,1.006-1.058c2.613,6.961,4.806,14.097,8.447,20.632
		C298.477,319.431,299.156,321.749,301.986,321.502z"/>
	<path fill-rule="evenodd" clip-rule="evenodd" fill="#013761" d="M295.098,338.086c-1.049,1.283-2.098,2.566-3.147,3.849
		c-0.973,0.39-1.946,0.78-2.918,1.173c-1.457-3.917-2.233-7.95-2.066-12.145C290.811,332.043,292.731,335.318,295.098,338.086z"/>
	<path fill-rule="evenodd" clip-rule="evenodd" fill="#00759A" d="M292.194,323.937c-2.048-0.001-4.097-0.001-6.145-0.002
		c0.239-3.339-2.373-6.65-0.094-10.007c0.657,0.016,1.315,0.032,1.972,0.048C289.414,317.269,291.719,320.211,292.194,323.937z"/>
	<path fill-rule="evenodd" clip-rule="evenodd" fill="#00759A" d="M302.155,324.071c4.469-0.139,8.261-3.349,12.873-2.842
		c-2.927,3.181-6.186,5.949-10.003,8.021C303.298,327.953,301.979,326.426,302.155,324.071z"/>
	<path fill-rule="evenodd" clip-rule="evenodd" fill="#161E21" d="M289.017,296.98c-0.335,0.352-0.671,0.705-1.006,1.058
		c-4.192-8.101-1.674-20.455,4.917-24.112l0.339,0.329c-1.906,3.771-3.855,7.524-4.827,11.681c-2.207,2.392-2.367,4.755,0.092,7.085
		C288.694,294.341,288.855,295.661,289.017,296.98z"/>
	<path fill-rule="evenodd" clip-rule="evenodd" fill="#161E21" d="M330.973,264.979c1.575,0.18,2.961,0.736,3.995,1.999
		C333.392,266.799,331.293,267.667,330.973,264.979z"/>
	<path fill-rule="evenodd" clip-rule="evenodd" fill="#005976" d="M287.928,313.976c-0.657-0.016-1.314-0.032-1.972-0.048
		c0.161-0.734,0.152-1.747,1.253-1.487C287.551,312.521,287.694,313.441,287.928,313.976z"/>
	<path fill-rule="evenodd" clip-rule="evenodd" fill="#161E21" d="M336.008,267.973c0.825-0.013,1.542,0.192,1.96,0.99
		C337.143,268.972,336.396,268.826,336.008,267.973z"/>
	<path fill-rule="evenodd" clip-rule="evenodd" fill="#161E21" d="M342.942,285c-0.783-0.436-0.964-1.178-1.01-1.987
		c0.275-0.244,0.55-0.488,0.825-0.732c0.364,0.607,0.729,1.216,1.093,1.824C343.548,284.404,343.245,284.702,342.942,285z"/>
	<path fill-rule="evenodd" clip-rule="evenodd" fill="#161E21" d="M292.928,273.926c0.328-0.329,0.655-0.658,0.981-0.988
		c0,0,0.342,0.328,0.342,0.328c-0.033,0.623-0.355,0.958-0.984,0.989L292.928,273.926z"/>
	<path fill-rule="evenodd" clip-rule="evenodd" fill="#161E21" d="M334.972,266.981c0.33,0.321,0.661,0.643,0.992,0.963
		C335.633,267.623,335.302,267.302,334.972,266.981z"/>
	<path fill-rule="evenodd" clip-rule="evenodd" fill="#002532" d="M152.615,336.931c-11.953,12.271-20.025,27.435-30.419,40.88
		c-8.804,11.387-17.521,22.875-25.374,34.969c-1.669,2.019-3.337,4.037-5.005,6.057c-1.194,1.377-2.387,2.755-3.582,4.132
		c-1.475-3.391-3.097-6.726-4.388-10.184c-2.387-6.396-5.054-12.748-6.67-19.347c-0.927-3.785,2.571-5.964,5.807-7.49
		c5.754,2.554,9.528-1.373,12.958-4.605c8.803-8.294,16.929-17.313,25.818-25.509c12.353-11.391,23.999-23.486,36.119-35.1
		c3.743-3.586,6.95-8.046,12.241-9.769c-0.483,2.167-1.992,3.752-3.218,5.464C162.049,323.201,156.77,329.673,152.615,336.931z"/>
	<path fill-rule="evenodd" clip-rule="evenodd" fill="#013761" d="M170.122,310.965c-5.292,1.723-8.5,6.183-12.242,9.769
		c-12.12,11.614-23.766,23.709-36.119,35.1c-8.889,8.196-17.015,17.215-25.818,25.509c-3.431,3.232-7.205,7.159-12.958,4.605
		c6.517-8.377,14.77-15.042,22.247-22.468c8.971-8.91,18.103-17.661,27.233-26.41c12.739-12.206,24.798-25.099,37.972-36.873
		c6.708-5.997,12.789-12.697,19.123-19.11c1.073-1.087,2.01-2.287,3.792-1.748c-3.515,6.951-8.829,12.666-13.105,19.091
		c-1.594,2.396-4.422,4.119-4.375,7.484l0.078-0.009c-1.229,0.106-1.785,0.903-2.046,2.001
		C172.643,308.926,171.382,309.945,170.122,310.965z"/>
	<path fill-rule="evenodd" clip-rule="evenodd" fill="#008FBE" d="M175.871,305.915c-0.047-3.366,2.781-5.088,4.375-7.484
		c4.276-6.426,9.59-12.14,13.105-19.091c5.111-5.298,8.703-12.037,15.266-15.982c0.889-0.535,1.345-1.789,2.002-2.708
		c0.383,0.032,0.765,0.064,1.147,0.098c7.369,5.718,14.717,11.461,22.114,17.142c4.923,3.781,9.914,7.473,14.875,11.204
		c0.21,3.797-4.94,4.043-5.048,7.63c-0.292,0.08-0.587,0.142-0.887,0.188c-2.34-1.539-4.72-3.02-7.012-4.626
		c-5.535-3.878-10.982-7.882-16.551-11.709c-5.009-3.443-9.966-3.751-15.042,0.221c-8.494,6.646-15.915,14.411-23.559,21.953
		C179.29,304.096,178.235,306.026,175.871,305.915z"/>
	<path fill-rule="evenodd" clip-rule="evenodd" fill="#007751" d="M341.901,458.118c0.653-0.083,0.946,0.283,1.074,0.857
		C342.618,458.69,342.26,458.404,341.901,458.118z"/>
	<path fill-rule="evenodd" clip-rule="evenodd" fill="#005976" d="M438.793,492.781c1.092-1.277,2.184-2.554,3.275-3.831
		c4.277-1.386,6.102-5.743,9.676-7.977c1.543,4.328,2.213,8.872,3.882,13.227c2.148,5.61-3.145,3.831-5.747,4.577
		c0.287-3.953-2.57-4.517-5.42-4.796C442.503,493.789,440.52,493.97,438.793,492.781z"/>
	<path fill-rule="evenodd" clip-rule="evenodd" fill="#01B078" d="M456.909,459.894c3.652-1.738,7.306-3.476,10.958-5.213
		c0.23,2.339-1.572,3.489-2.963,4.767c-3.179,2.921-4.758,6.492-4.891,10.76c-1.308,1.294-2.615,2.589-3.922,3.885
		C453.113,469.173,455.949,464.587,456.909,459.894z"/>
	<path fill-rule="evenodd" clip-rule="evenodd" fill="#00CB8B" d="M460.014,470.207c0.133-4.268,1.712-7.839,4.891-10.76
		c1.391-1.277,3.193-2.428,2.963-4.767c1.549-1.611,3.099-3.224,4.647-4.835c1.533,0.182,2.914,0.026,4.159-1.115
		c2.684-2.46,5.458-4.82,8.208-7.208c10.246-8.898,20.377-17.935,30.826-26.587c2.781-2.303,6.444-4.026,10.384-1.779
		c-15.617,13.594-31.212,27.212-46.861,40.769C472.885,459.421,466.423,464.783,460.014,470.207z"/>
	<path fill-rule="evenodd" clip-rule="evenodd" fill="#00875C" d="M478.367,427.846c3.441-0.184,5.542-2.598,7.883-4.665
		c5.566-4.921,11.074-9.916,16.816-14.626c3.925-3.218,8.485-5.021,13.774-4.618c6.079,0.462,12.265-0.846,18.263,1.084
		c-0.997,1.405-1.918,2.912-3.927,2.993c-6.947-2.132-13.764-1.295-19.43,2.922c-7.411,5.516-13.97,12.165-21.278,17.832
		c-4.791,3.714-8.303,9.104-14.359,11.176C476.862,435.911,477.615,431.878,478.367,427.846z"/>
	<path fill-rule="evenodd" clip-rule="evenodd" fill="#01B078" d="M476.109,439.943c6.057-2.072,9.568-7.462,14.359-11.176
		c7.309-5.667,13.867-12.316,21.278-17.832c5.666-4.217,12.482-5.054,19.43-2.922c-1.18,2.223-2.706,4.105-5.085,5.143
		c-3.939-2.247-7.603-0.523-10.384,1.779c-10.449,8.652-20.58,17.688-30.826,26.587c-2.75,2.388-5.524,4.748-8.208,7.208
		c-1.245,1.142-2.626,1.297-4.159,1.115C473.712,446.546,474.911,443.244,476.109,439.943z"/>
	<path fill-rule="evenodd" clip-rule="evenodd" fill="#00759A" d="M438.793,492.781c1.727,1.188,3.71,1.008,5.666,1.2
		c2.85,0.279,5.707,0.843,5.42,4.796c-7.644,1.722-15.005,4.696-22.932,5.157c0.797-4.678,6.076-5.36,8.03-9.007
		C436.03,493.822,437.34,493.174,438.793,492.781z"/>
	<path fill-rule="evenodd" clip-rule="evenodd" fill="#00759A" d="M424.797,504.836c0.536-0.723,1.214-1.101,2.137-0.89
		C426.509,504.936,425.634,504.838,424.797,504.836z"/>
	<path fill-rule="evenodd" clip-rule="evenodd" fill="#01B078" d="M365.824,289.022c-0.345-0.649-0.689-1.3-1.034-1.95
		c5.977-2.719,10.424-7.502,15.195-11.724c13.569-12.008,21.846-8.688,30.234-0.023c6.895,7.123,13.888,14.221,20.491,21.681
		c10.639,12.017,22.109,23.292,32.996,35.11c14.057,15.26,28.6,30.071,42.933,45.076c1.716,1.795,3.276,3.738,4.905,5.592
		c3.673,4.181,7.359,8.655,13.61,9.11c1.444,2.753,5.296,3.51,5.825,7.024c-6.606,0.357-12.79-0.529-18.458-4.519
		c-4.057-2.855-6.679-6.875-9.997-10.322c-11.305-11.739-22.849-23.25-33.976-35.154c-6.094-6.521-12.194-13.036-18.277-19.567
		c-15.487-16.627-30.769-33.451-46.921-49.443c-4.894-4.845-8.566-5.116-14.277-1.401c-6.549,4.258-12.3,9.54-18.246,14.566
		C369.16,291.727,367.492,290.375,365.824,289.022z"/>
	<path fill-rule="evenodd" clip-rule="evenodd" fill="#00875C" d="M370.828,293.079c5.946-5.026,11.697-10.308,18.246-14.566
		c5.711-3.714,9.384-3.444,14.277,1.401c16.152,15.992,31.434,32.815,46.921,49.443c6.083,6.531,12.184,13.046,18.277,19.567
		c11.127,11.904,22.671,23.415,33.976,35.154c3.318,3.447,5.94,7.467,9.997,10.322c5.668,3.989,11.852,4.876,18.458,4.519
		c1.889,0.115,2.833,1.183,3.03,3.003c-6.812,0.375-13.563-0.292-20.331-0.965c-6.512-0.647-10.715-4.872-14.822-9.164
		c-15.479-16.174-31.013-32.298-46.221-48.723c-16.682-18.018-33.237-36.149-50.605-53.514c-5.779-5.777-7.625-6.038-13.924-1.002
		c-3.984,3.186-8.221,6.178-11.211,10.458C375.014,296.892,371.607,296.328,370.828,293.079z"/>
	<path fill-rule="evenodd" clip-rule="evenodd" fill="#00CB8B" d="M525.155,391.894c-6.251-0.455-9.938-4.929-13.61-9.11
		c-1.629-1.854-3.189-3.797-4.905-5.592c-14.333-15.005-28.876-29.815-42.933-45.076c-10.887-11.818-22.357-23.094-32.996-35.11
		c-6.604-7.46-13.597-14.558-20.491-21.681c-8.389-8.665-16.665-11.985-30.234,0.023c-4.771,4.222-9.219,9.005-15.195,11.724
		c-1.084-0.697-2.169-1.395-3.255-2.092c1.506-1.627,3.011-3.254,4.517-4.881c7.13-4.164,12.306-10.666,18.737-15.674
		c3.868-3.012,7.505-6.323,11.246-9.501c6.281,4.818,10.698,11.417,16.198,16.997c13.326,13.52,26.284,27.403,39.319,41.207
		c8.422,8.919,16.689,17.983,25.08,26.932c9.073,9.679,18.235,19.274,27.308,28.954
		C511.053,376.602,518.087,384.264,525.155,391.894z"/>
	<path fill-rule="evenodd" clip-rule="evenodd" fill="#F8F9F9" d="M307.364,522.604c-0.42,3.772-0.84,7.546-1.26,11.318
		c-1.497,1.954-3.595,0.761-5.414,1.035c0.516-3.632,3.114-6.79,2.439-10.693c1.451-0.128,1.63-1.262,2.022-2.355
		c0.361-1.008-0.628-3.25,1.563-2.719C308.218,519.555,307,521.455,307.364,522.604z"/>
	<path fill-rule="evenodd" clip-rule="evenodd" fill="#F8F9F9" d="M257.701,293.055c7.005-8.834,16.179-14.933,26.484-21.439
		c-1.186,4.639-2.159,8.183-2.991,11.759c-1.615,6.946-2.844,13.959-3.263,21.093c-0.078,1.333,0.028,2.782-1.992,2.638
		C270.325,301.818,263.921,297.556,257.701,293.055z"/>
	<path fill-rule="evenodd" clip-rule="evenodd" fill="#013761" d="M243.707,296.721c0.109-3.586,5.26-3.832,5.05-7.629
		c0.32-0.038,0.643-0.062,0.963-0.069c3.414,2.369,4.815,0.469,5.639-2.657c2.485,0.143,3.579-2.692,6.71-3.144
		c-2.159,4.233-7.677,6.159-5.982,11.479c-1.735,0.921-2.828,2.414-3.683,4.123c-0.669,0.065-1.332,0.131-1.999,0.198
		C247.731,299.531,246.072,297.099,243.707,296.721z"/>
	<path fill-rule="evenodd" clip-rule="evenodd" fill="#394452" d="M257.701,293.055c6.22,4.501,12.624,8.764,18.238,14.051
		c-0.389,0.609-0.777,1.22-1.167,1.829c-5.911-4.571-11.818-9.141-17.726-13.71C257.104,294.454,256.905,293.604,257.701,293.055z"
		/>
	<path fill-rule="evenodd" clip-rule="evenodd" fill="#002532" d="M268.99,277c0.142,1.681-0.471,2.625-2.195,3.272
		c-1.272,0.478-2.221,1.814-3.803,3.194c-0.141-4.626,3.295-5.224,5.971-6.497L268.99,277z"/>
	<path fill-rule="evenodd" clip-rule="evenodd" fill="#002532" d="M278.986,271.004c-1.071,1.991-2.953,2.63-4.999,2.996
		l-0.031-0.032c0.28-3.304,2.752-2.962,4.995-3.004C278.95,270.962,278.986,271.004,278.986,271.004z"/>
	<path fill-rule="evenodd" clip-rule="evenodd" fill="#002532" d="M268.962,276.969c1.053-2.019,2.592-3.229,4.994-3.002
		l0.031,0.032c-0.587,2.798-2.818,2.855-4.998,3.001C268.99,277,268.962,276.969,268.962,276.969z"/>
	<path fill-rule="evenodd" clip-rule="evenodd" fill="#293540" d="M321.052,407.371c4.617-0.438,9.231-1.193,13.854-1.243
		c8.243-0.088,11.894,4.246,10.86,12.301c-0.972,7.567-0.972,7.567-8.719,7.564c-1.977-0.001-3.953,0-6.125,0
		c0.549-2.929,1.053-5.489,1.503-8.06c0.247-1.412,1.97-3.425-0.936-3.819c-2.168-0.295-4.452-0.721-5.537,2.562
		c-1.865,5.647-0.86,11.748-3.138,17.269c-4.63-0.314-9.369,0.94-13.889-0.964c0.389-2.597,0.776-5.193,1.165-7.782
		c-0.001,0.009-0.028,0.133-0.028,0.133c1.802-0.492,1.012-2.6,2.176-3.488c0.699-0.597,1.317-1.36,2.119-1.745
		c0.937-0.449,1.796-0.824,1.477-2.021c-0.399-1.5-1.701-1.097-2.764-1.148c-0.604-0.092-1.349,0.14-1.632-0.7
		c3.244-0.584,4.433-2.021,2.043-4.938c0.768-0.54,1.534-1.08,2.299-1.619c3.006,0.789,5.579-1.088,8.443-1.494
		C323.166,407.909,322.108,407.641,321.052,407.371z"/>
	<path fill-rule="evenodd" clip-rule="evenodd" fill="#293540" d="M233.11,435.94c2.727-4.009,0.928-9.223,3.741-13.393
		c1.118-1.657-2.01-1.071-2.828-2.039c0.929-1.202,3.268,0.058,3.605-3.22c0.303-2.937-1.669-1.912-2.437-2.797
		c1.305-0.588,2.442-1.1,3.58-1.611c2.118,0.4,1.863-0.646,1.188-1.948c0.974-1.311-2.876-0.205-0.988-1.974
		c2.076,0.108,2.002-1.362,2.029-2.76c6.325-0.052,12.651-0.179,18.975-0.092c1.298,0.018,4.178-1.097,3.49,1.684
		c-0.61,2.467,0.933,6.404-3.392,7.177c-0.969,0.173-1.994,0.025-2.993,0.028c-5.695,0.015-7.67,2.356-6.196,7.735
		c0.69,2.515,3.052,0.808,4.574,1.307c1.377,0.453,4.514-1.167,3.464,2.195c-0.733,2.35,1.265,6.336-3.583,6.823
		c-2.532,0.255-5.792-1.801-7.512,1.863C242.977,436.08,238.108,436.955,233.11,435.94z M245.874,412.847
		c0.422-0.579,0.873-0.927,0.871-1.271c-0.002-0.372-0.428-0.741-0.669-1.111c-0.307,0.306-0.812,0.581-0.865,0.926
		C245.157,411.746,245.542,412.169,245.874,412.847z"/>
	<path fill-rule="evenodd" clip-rule="evenodd" fill="#394452" d="M395.901,434.936c-1.269-1.213-1.545-3.862-0.479-4.589
		c1.363-0.93,3.281-9.964,2.248-11.321c-0.324-0.426-1.342-0.323-1.863-0.427c4.744-1.381,2.584-6.339,4.446-9.303
		c-3.704-2.122,0.234-2.225,0.813-2.321c9.381-1.567,18.797-1.928,28.005,0.842c3.202,0.963,4.618,3.666,3.726,7.168
		c-4.4-0.017-8.801-0.033-13.202-0.051c-3.892-1.961-5.989-1.179-6.702,3.537c-0.842,5.563-2.369,11.023-3.6,16.528
		C404.835,433.637,400.353,437.739,395.901,434.936z"/>
	<path fill-rule="evenodd" clip-rule="evenodd" fill="#293540" d="M302.899,410.002c0.891,0.391,1.033,1.146,0.969,1.999
		c-1.336,1.675-1.353,3.329,0.079,4.959c-0.072,5.658-2.108,9.858-8.196,11.054c-0.85,0.507-0.561,0.773,0.2,0.94l0.035,0.013
		c-0.255,5.95-4.287,0.81-6.133,2.088c-2.258-0.013-4.517-0.025-6.775-0.038c-1.885,0.429-3.757,1.138-5.659,1.226
		c-3.607,0.168-6.725,3.316-10.586,1.669c2.647-1.11,2.867-3.434,2.92-5.841c5.151,0.25,1.385-2.408,1.265-3.878
		c0,0,0.182-0.183,0.181-0.182c1.546-0.216,2.35-0.837,0.756-2.061c-1.987-1.524-4.347-1.244-6.656-0.979
		c2.007-1.664,4.651-1.052,6.879-1.925c2.383-1.473,1.284-3.982,1.791-6.014c-0.307-0.514-0.613-1.027-0.92-1.541
		c0-0.002-0.009,0.113-0.009,0.113c0.139-0.305,0.375-0.444,0.709-0.419C283.69,416.29,293.259,412.277,302.899,410.002z
		 M287.298,424.302c0.284-0.112,0.576-0.335,0.852-0.318c2.819,0.17,3.116-1.65,3.155-3.812c0.021-1.127-0.188-1.834-1.423-2.153
		c-2.5-0.646-2.727,1.328-3.806,2.729c-1.111,1.441-0.973,2.708-0.706,4.117c0.205,1.082-1.224,2.844,1.061,3.131
		c1.116,0.141,2.599,0.258,3.057-1.013C290.124,425.221,287.51,425.659,287.298,424.302z M271.148,430.441l0.336,0.178l0.022-0.304
		L271.148,430.441z"/>
	<path fill-rule="evenodd" clip-rule="evenodd" fill="#394452" d="M352.758,437.702c-0.661-0.785-1.377-1.509,0.017-2.35
		c3.385-2.041,1.849-6.352,4.185-9.144c1.243-1.486-1.168-1.553-2.576-1.699c2.938-0.688,5.47-2.382,5.851-5.211
		c0.268-1.992-2.791-0.642-4.167-2.031c2.496-0.489,6.157-0.589,5.464-3.584c-0.603-2.607-4.036-0.29-5.362-1.062
		c1.769-0.445,6.31-0.777,6.455-1.759c0.935-6.318,5.411-4.726,9.146-4.809c4.152-0.094,8.477-0.725,12.41,0.211
		c3.52,0.839,1.163,4.355,1.156,6.73c-4.552,1.272-9.236,2.332-11.52,7.222c-2.382,0.048-3.408,1.975-3.561,3.655
		c-0.366,4.028-2.214,7.457-3.62,11.077C362.052,436.079,357.813,438.952,352.758,437.702z"/>
	<path fill-rule="evenodd" clip-rule="evenodd" fill="#161E21" d="M163.849,413.931c-1.135-2.792,0.651-4.225,2.695-5.38
		c-2.469-1.785-5.25-1.626-8.18-2.241c6.212,2.035,6.98-4.204,10.412-6.271c8.606-0.23,17.204-0.234,25.754,0.979
		c-0.145,4.66-0.289,9.319-0.434,13.977c-0.042,0.646-0.083,1.292-0.125,1.939c-2.017,1.337-4.033,1.262-6.047-0.004
		c-0.469-1.714-3.814-1.151-3.182-2.21c1.892-3.168-2.443-1.308-2.007-2.929c-1.679,0.386-2.715,1.36-2.866,3.141
		c-5.16,1.974-10.329,4.159-15.061-0.944C164.652,413.816,164.176,413.942,163.849,413.931z"/>
	<path fill-rule="evenodd" clip-rule="evenodd" fill="#161E21" d="M202.268,400.998c-0.559-1.786,1.137-2.102,1.953-2.991
		c2.197,0.782,4.468,0.886,6.785,1.022c6.477,0.381,12.577-2.389,19.021-2.074c-0.133,6.149-1.654,12.068-2.983,18.021
		c-5.311-0.354-10.711,0.767-15.937-0.976c-0.607-1.217-0.936-3.645-2.677-0.847c-0.945,1.519-1.522,3.266-2.265,4.909
		c-2.24-1.436-4.479-2.871-6.72-4.307c0.775-1.634-1.674-1.108-1.604-2.331c2.106-1.111,5.135,0.968,6.587-1.988
		c-1.747-0.337-3.702,0.4-5.847-0.793c2.365-1.853,5.542-2.043,6.362-4.979c-1.097-0.345-2.403-0.753-3.703-1.181
		c-0.032-0.011-0.035-0.276,0.028-0.369c0.088-0.129,0.251-0.207,0.383-0.307C202.359,401.922,203.066,402.034,202.268,400.998z"/>
	<path fill-rule="evenodd" clip-rule="evenodd" fill="#275C6B" d="M352.758,437.702c5.056,1.25,9.294-1.623,13.877-2.752
		c1.812,1.811,3.64,1.623,5.479,0.044c3.621,3.069,8.4,2.442,12.519,3.928c-0.046,4.025-0.092,8.051-0.139,12.076
		c-0.301,0.134-0.476,0.368-0.523,0.702c-1.005,0.026-2.01,0.054-3.015,0.081c-1.604-4.991-5.66-4.955-9.787-4.775
		c-2.426-3.939-4.873-2.438-7.324-0.031c-3.257,0.227-5.95,1.258-6.877,4.813c-2.308,0.052-4.62,0.035-6.921,0.18
		c-1.648,0.104-3.044-0.272-3.47-1.946c-0.48-1.888,2.076-0.6,2.017-1.466c-0.229-3.326,2.61-5.422,3.107-8.41
		c1.042-0.503,1.204-1.402,1.093-2.425L352.758,437.702z"/>
	<path fill-rule="evenodd" clip-rule="evenodd" fill="#275C6B" d="M395.901,434.936c4.451,2.804,8.934-1.299,13.392,0.063
		c-0.244,2.283-0.602,4.435-1.82,6.558c-1.021,1.778-0.765,3.172,2.347,2.649c4.678-0.785,3.086-4.762,4.441-7.203
		c4.86,0.028,9.595-1.652,14.495-1.086c-0.454,3.495-0.901,6.993-2.854,10.063c-7.658-0.447-15.222,0.704-22.786,1.563
		c-1.563,0.178-4.647-0.1-4.465,2.122c0.191,2.331,3.014,1.139,4.636,1.2c5.324,0.202,10.655,0.147,15.984,0.191
		c-7.507,1.905-15.132,0.553-22.699,0.795c-1.634,0.053-3.281-0.294-4.786-0.443c-0.272-5.278,4.515-10.15,1.331-15.764
		C394.045,435.408,394.973,435.172,395.901,434.936z"/>
	<path fill-rule="evenodd" clip-rule="evenodd" fill="#293540" d="M194.529,401.017c-8.55-1.213-17.148-1.209-25.754-0.979
		c-3.002-0.581-5.963-1.413-9.091-2.135c2.474,0,5.15,0.545,7.32-0.268c0.869-0.325,0.177-4.074,3.428-2.863
		c-1.929-1.839-4.295-1.761-6.58-1.979c0.013-0.349,0.023-0.698,0.034-1.048c2.604-0.239,5.127-0.557,4.212-4.268l-0.01,0.07
		c7.936-0.975,15.909-0.248,23.858-0.54c2.339-0.086,3.312,0.631,3.106,3.09C194.751,393.727,194.692,397.376,194.529,401.017z"/>
	<path fill-rule="evenodd" clip-rule="evenodd" fill="#293540" d="M163.849,413.931c0.328,0.012,0.803-0.114,0.96,0.056
		c4.731,5.104,9.901,2.918,15.062,0.945c0.368,0.247,0.734,0.495,1.101,0.742c-2.892,6.135-2.956,13.16-6.055,19.23
		c-4.502,0.274-8.642,1.496-11.857,4.85c-1.414,1.476-2.698,1.619-4.133,0.154c-1.385-0.658,4.565-3.306-0.784-2.892
		c-0.251-0.715,0.109-1.034,0.754-1.17c1.767,0.103,3.535,0.206,5.303,0.309c-3.008-0.493-1.689-5.553-5.295-5.042
		c0.477-2.922,3.665-2.118,5.015-3.614c-1.493-3.969-5.984-2.848-9.508-5.896C162.474,423.804,161.524,417.234,163.849,413.931z"/>
	<path fill-rule="evenodd" clip-rule="evenodd" fill="#275C6B" d="M233.11,435.94c4.999,1.015,9.867,0.14,14.715-1.021
		c1.083,2.758-3.759,5.442-0.754,7.575c1.8,1.278,5.102,0.442,7.729,0.553c1.196,0.05,2.133,0.038,2.173,1.836
		c0.11,5.047-1.677,7.101-6.609,7.097c-4.648-0.003-9.309-0.224-13.939,0.059c-4.092,0.249-5.832-2.067-4.974-5.267
		C232.418,443.162,231.592,439.38,233.11,435.94z"/>
	<path fill-rule="evenodd" clip-rule="evenodd" fill="#293540" d="M211.106,414c5.226,1.742,10.626,0.622,15.937,0.976
		c-1.671,6.257-1.699,12.857-3.976,18.987c-3.259,0.001-6.54-0.232-9.772,0.062c-3.864,0.35-6.189-0.4-5.056-4.94
		c0.134-0.781,0.268-1.563,0.402-2.344c0.732-0.2,1.464-0.401,2.197-0.603c0.333,0.52,0.998,1.058,1.316,0.474
		c0.415-0.762-0.609-0.595-1.024-0.813c-0.281-1.714-1.381-2.077-2.896-1.758C208.8,420.581,209.592,417.187,211.106,414z"/>
	<path fill-rule="evenodd" clip-rule="evenodd" fill="#293540" d="M230.027,396.955c-6.444-0.314-12.544,2.455-19.021,2.074
		c-2.317-0.137-4.588-0.24-6.785-1.022c-1.48-5.434,2.524-10.934,8.007-10.957c5.803-0.025,11.617,0.193,17.406-0.099
		c3.463-0.175,4.133,1.167,3.061,3.976C231.913,392.974,232.673,395.733,230.027,396.955z"/>
	<path fill-rule="evenodd" clip-rule="evenodd" fill="#293540" d="M464.885,408.191c7.067,2.161,9.18,7.611,5.447,15.784
		c-0.943,2.063-0.876,4.014-1.387,5.986c-3.3-0.024-6.64,0.356-9.8-1.011c-0.399-1.739,1.389-3.637,0.901-4.595
		c-1.085-2.13,4.422-7.673-3.113-6.475c-0.836-1.486-1.541-3.063,0.07-4.406c2.039-1.702,2.026-3.938,1.972-6.241
		c1.313,0.049,2.624,0.098,3.937,0.146C463.187,408.582,463.607,409.429,464.885,408.191z"/>
	<path fill-rule="evenodd" clip-rule="evenodd" fill="#293540" d="M439.792,418.612c-0.049-0.287,0.056-0.497,0.315-0.63
		c3.39,1.131,6.718,1.297,10.218,0.144c1.822-0.601,4.173-1.814,5.691,0.858c-2.998,4.621-1.26,10.384-3.654,15.15
		c-5.313,0.577-10.624,1.19-15.985,0.751c0.887-2.957,0.178-6.263,1.973-9.021c0.743,0.07,1.793,0.575,1.958-0.559
		c0.131-0.893-0.182-1.94-1.345-2.274c0.052-0.693,0.103-1.387,0.153-2.081C439.853,420.319,439.918,419.493,439.792,418.612z"/>
	<path fill-rule="evenodd" clip-rule="evenodd" fill="#275C6B" d="M158.927,439.908c1.435,1.465,2.72,1.321,4.133-0.154
		c3.215-3.354,7.354-4.575,11.857-4.85c1.146,5.45-1.531,10.371-2.173,15.574c-0.246,1.99-1.917,1.449-3.121,1.464
		c-4.634,0.056-9.269,0.022-13.543,0.022c0.288-4.081,0.292-8.228,2.057-12.02C158.401,439.943,158.664,439.932,158.927,439.908z"/>
	<path fill-rule="evenodd" clip-rule="evenodd" fill="#293540" d="M419.595,414.934c4.401,0.018,8.802,0.034,13.202,0.051
		c0.666,2.847-0.977,5.437-0.917,8.216c0-0.001,0.006,0.362,0.006,0.362c-1.41,2.258-0.423,5.203-2.115,7.38
		c-4.847-0.228-9.645,0.251-14.424,0.999c-0.114-2.342,2.893-5.117,0.786-6.67c-2.916-2.148-0.524-4.49-0.007-4.631
		C419.326,419.773,418.354,416.727,419.595,414.934z"/>
	<path fill-rule="evenodd" clip-rule="evenodd" fill="#293540" d="M199.444,413.756c2.24,1.436,4.48,2.871,6.72,4.307
		c-0.47,3.197-1.924,6.027-3.302,8.887c-6.743,0.598-13.259-1.093-19.854-1.98c-0.084-1.412-0.167-2.823-0.25-4.233
		c1.121,0.165,2.293,0.8,3.364-0.33c-1.083-0.844-2.173-0.427-3.239-0.292c-0.192-0.285-0.249-0.595-0.168-0.929
		c0.11-0.33,0.22-0.662,0.329-0.994c0,0,0.348-0.107,0.347-0.106c1.51-0.385,3.022-0.771,4.533-1.155
		c2.015,1.266,4.03,1.341,6.047,0.004c1.352,0.001,2.704,0.001,4.911,0.001c-1.433-0.862-2.155-1.295-2.876-1.729
		C196.991,414.34,198.07,413.697,199.444,413.756z"/>
	<path fill-rule="evenodd" clip-rule="evenodd" fill="#275C6B" d="M183.742,437.896c0.035-0.333,0.069-0.666,0.104-0.998
		c0.432-0.112,0.864-0.226,1.295-0.338c-0.351-0.883-0.943-0.334-1.457-0.247c0,0,0.146-0.092,0.147-0.092
		c0.362-2.575,2.332-2.254,4.098-2.256c4.063-0.004,8.126,0.015,12.189,0.024c-1.459,5.241-3.604,10.214-5.902,15.126
		c-2.018-0.303-4.313-2.025-5.802,0.975c1.287,1.533,3.438,0.124,4.53,1.689c-2.025,0.21-4.053,0.486-6.042-0.233
		c-1.407-0.669-1.345-3.507-3.825-2.595c-1.724-0.411-2.821-1.085-1.206-2.889c2.681-0.759,5.615,1.689,8.555-0.508
		c-2.333-1.52-5.079,0.306-6.957-1.511c0.877-2.262,2.858-2.829,4.949-3.479C186.534,439.488,185.138,438.692,183.742,437.896z"/>
	<path fill-rule="evenodd" clip-rule="evenodd" fill="#275C6B" d="M289.854,431.055c1.846-1.278,5.878,3.862,6.133-2.088
		c3.906,0.566,5.179,2.97,4.408,6.589c-0.814,3.817-1.799,7.597-2.71,11.392c-4.207-0.891-8.415-1.781-12.622-2.673
		c1.851-2.824,2.655-6.29,2.159-9.244C286.724,432.069,288.713,432.156,289.854,431.055z"/>
	<path fill-rule="evenodd" clip-rule="evenodd" fill="#275C6B" d="M324.957,445.102c2.385-2.006,3.506-4.743,3.687-7.683
		c0.19-3.089,1.677-3.863,4.373-3.424c0.161,0.025,0.335-0.022,0.495,0.007c2.878,0.541,6.482-1.529,8.553,1.29
		c1.44,1.96-2.544,10.553-5.288,12.257c-2.14,1.331-4.542,2.237-6.828,3.333c0.034-1.609-0.308-2.83-2.31-2.934
		C325.95,447.861,325.06,446.798,324.957,445.102z"/>
	<path fill-rule="evenodd" clip-rule="evenodd" fill="#293540" d="M373.815,420.218c2.283-4.89,6.968-5.949,11.52-7.222
		c0.417,1.331,0.381,2.64-0.194,3.921c-1.738,1.31-1.582,2.672-0.114,4.071c0.635,4.081-1.506,7.909-1.095,11.97
		c-3.652-0.665-7.124-2.318-10.957-1.994C372.951,427.357,372.085,423.686,373.815,420.218z"/>
	<path fill-rule="evenodd" clip-rule="evenodd" fill="#394452" d="M302.899,410.002c-9.64,2.275-19.208,6.288-29.148,1.184
		c0.077-2.827,0.077-2.827-3.875-3.854c9.726-2.039,18.8-1.613,27.871-0.534C299.837,407.046,302.033,407.572,302.899,410.002z"/>
	<path fill-rule="evenodd" clip-rule="evenodd" fill="#275C6B" d="M208.239,429.084c-1.133,4.54,1.192,5.29,5.056,4.94
		c3.232-0.294,6.513-0.061,9.772-0.062c-0.085,3.807-1.202,7.399-2.274,11.002c-5.157-0.467-10.466-0.018-15.279-2.546
		c1.676-3.368-1.019-7.013,0.693-10.442C206.761,430.871,206.46,429.3,208.239,429.084z"/>
	<path fill-rule="evenodd" clip-rule="evenodd" fill="#394452" d="M456.017,418.984c-1.519-2.673-3.869-1.459-5.691-0.858
		c-3.5,1.153-6.828,0.987-10.218-0.144c-0.323-2.271-2.522-0.871-3.494-1.713c1.654,0.069,4.07,0.796,4.215-1.576
		c0.13-2.135-2.44-0.574-3.519-1.298c3.906,0.04,7.837,0.174,9.496-4.76c0.194-0.577,2.483-0.501,3.81-0.638
		c2.784-0.286,5.574-0.513,8.36-0.764c0.055,2.303,0.067,4.539-1.972,6.241c-1.611,1.344-0.906,2.92-0.07,4.406
		C456.628,418.25,456.322,418.617,456.017,418.984z"/>
	<path fill-rule="evenodd" clip-rule="evenodd" fill="#275C6B" d="M436.377,434.886c5.361,0.439,10.673-0.174,15.985-0.751
		c-0.813,3.618-1.625,7.235-2.437,10.854c-4.846-0.662-10.079,1.652-14.551-1.891c0.121-0.947-1.839-1.496-0.722-2.473
		c3.141-2.742-0.436-2.341-1.856-3.185C434.652,437.029,435.623,436.09,436.377,434.886z"/>
	<path fill-rule="evenodd" clip-rule="evenodd" fill="#002532" d="M229.127,344.101c0.538,0.304,1.453,0.51,1.56,0.925
		c2.787,10.805,5.511,21.628,8.177,32.465c0.27,1.097,0.102,2.301,0.137,3.456c-2.154-1.309-4.498-2.05-6.996-2.327
		C231.045,367.113,230.086,355.606,229.127,344.101z"/>
	<path fill-rule="evenodd" clip-rule="evenodd" fill="#394452" d="M200.119,433.989c-4.063-0.01-8.126-0.028-12.189-0.024
		c-1.766,0.002-3.736-0.319-4.098,2.256c-0.331-0.017-0.662-0.033-0.991-0.051c0.046-0.386,0.09-0.771,0.135-1.156
		c-0.269-1.546-4.032-3.488,0.608-4.505c1.176-0.257,0.549-1.032-0.162-1.686c-1.18-1.084-1.535-2.436-0.414-3.854
		c6.596,0.888,13.111,2.578,19.854,1.98C202.393,429.47,201.441,431.801,200.119,433.989z"/>
	<path fill-rule="evenodd" clip-rule="evenodd" fill="#3B836E" d="M280.334,441.956c-2.283,12.761,0.167,9.7-11.773,9.885
		c-1.686,0.025-3.695,0.437-4.399-0.429c1.324-5.155,2.502-9.74,3.68-14.324c1.462-0.252,2.222,0.353,2.249,1.849
		c-2.528,3.612-1.646,5.03,2.808,5.113C275.727,444.104,277.921,442.86,280.334,441.956z"/>
	<path fill-rule="evenodd" clip-rule="evenodd" fill="#3B836E" d="M435.375,443.098c4.472,3.543,9.705,1.229,14.551,1.891
		c1.634,3.603,4.139,1.694,6.449,1.02c0.869,1.021,1.737,2.044,2.606,3.066c-5.41,4.896-11.602,2.612-17.669,2.05
		c-3.945-0.366-5.406-3.155-6.87-6.081C433.996,444.151,434.531,443.493,435.375,443.098z"/>
	<path fill-rule="evenodd" clip-rule="evenodd" fill="#3B836E" d="M205.515,442.419c4.813,2.528,10.122,2.079,15.279,2.546
		c-0.122,2.407-0.169,4.836-1.859,6.817c-5.422-1.822-11-0.442-16.493-0.799C203.341,448.083,201.676,444.264,205.515,442.419z"/>
	<path fill-rule="evenodd" clip-rule="evenodd" fill="#002532" d="M278.048,397.58c-2.767-6.987-7.458-12.853-11.3-19.208
		c-0.87-1.439-1.998-2.626-1.766-4.443c7.918,6.802,14.496,14.82,20.882,23.014c-0.268,0.237-0.537,0.474-0.805,0.711
		C282.722,397.629,280.384,397.604,278.048,397.58z"/>
	<path fill-rule="evenodd" clip-rule="evenodd" fill="#275C6B" d="M458.981,449.074c-0.869-1.022-1.737-2.045-2.607-3.066
		c-1.311-3.532,0.292-6.744,1.103-10.044c3.426-0.014,6.853-0.028,10.278-0.042C466.955,441.723,466.265,447.598,458.981,449.074z"
		/>
	<path fill-rule="evenodd" clip-rule="evenodd" fill="#3B836E" d="M324.957,445.102c0.103,1.696,0.993,2.76,2.682,2.847
		c2.002,0.104,2.344,1.324,2.31,2.934c-8.394,2.591-16.231,1.065-19.972-3.888c1.575-0.14,3.638,0.678,4.602-0.755
		c1.71-2.545,4.09-2.198,6.475-2.283C322.17,444.965,323.566,445.025,324.957,445.102z"/>
	<path fill-rule="evenodd" clip-rule="evenodd" fill="#3B836E" d="M419.271,451.057c-5.329-0.044-10.66,0.011-15.984-0.191
		c-1.622-0.062-4.444,1.131-4.636-1.2c-0.183-2.222,2.902-1.944,4.465-2.122c7.564-0.858,15.128-2.01,22.786-1.563
		C424.796,449.115,422.531,450.737,419.271,451.057z"/>
	<path fill-rule="evenodd" clip-rule="evenodd" fill="#3B836E" d="M285.062,444.274c4.208,0.892,8.415,1.782,12.622,2.673
		c0.514,4.151-1.42,5.567-5.391,5.067c-1.945-0.245-3.946-0.102-5.919-0.046c-1.604,0.046-3.178-1.344-2.377-2.096
		C285.949,448.039,279.841,445.026,285.062,444.274z"/>
	<path fill-rule="evenodd" clip-rule="evenodd" fill="#275C6B" d="M321.053,443.956c-2.385,0.085-4.765-0.262-6.475,2.283
		c-0.964,1.433-3.026,0.615-4.602,0.755c-1.834-1.684-2.527-3.602-1.213-5.93c3.813-3.953,8.7-1.364,13.034-2.145
		C321.55,440.598,321.301,442.277,321.053,443.956z"/>
	<path fill-rule="evenodd" clip-rule="evenodd" fill="#394452" d="M321.798,438.92c-4.334,0.78-9.222-1.809-13.034,2.145
		c-0.649-0.055-1.584,0.145-1.898-0.209c-1.266-1.418,0.584-0.688,0.869-1.092c1.475-2.082,1.506-4.397,1.191-6.783
		c4.52,1.904,9.259,0.649,13.889,0.964C323.039,435.718,322.454,437.326,321.798,438.92z"/>
	<path fill-rule="evenodd" clip-rule="evenodd" fill="#394452" d="M415.347,431.941c4.779-0.748,9.577-1.227,14.424-0.999
		c0.266,1.781-0.492,3.354-1.015,4.975c-4.9-0.566-9.635,1.114-14.495,1.085C414.623,435.315,414.984,433.628,415.347,431.941z"/>
	<path fill-rule="evenodd" clip-rule="evenodd" fill="#394452" d="M372.975,430.964c3.833-0.324,7.305,1.329,10.957,1.994
		c1.651,1.822,0.967,3.918,0.7,5.964c-4.118-1.485-8.897-0.858-12.519-3.928C371.848,433.532,372.059,432.172,372.975,430.964z"/>
	<path fill-rule="evenodd" clip-rule="evenodd" fill="#394452" d="M270.091,438.937c-0.027-1.496-0.787-2.101-2.249-1.849
		c0.348-1.275-5.653-0.536-1.008-3.177c3.861,1.647,6.979-1.501,10.586-1.669c1.901-0.088,3.773-0.797,5.659-1.226
		c-0.565,1.992-1.13,3.985-1.697,5.978C277.363,436.165,273.939,438.786,270.091,438.937z"/>
	<path fill-rule="evenodd" clip-rule="evenodd" fill="#275C6B" d="M270.091,438.937c3.849-0.15,7.272-2.771,11.291-1.942
		c-0.348,1.654-0.697,3.308-1.047,4.962c-2.414,0.904-4.607,2.147-7.436,2.094C268.444,443.967,267.563,442.549,270.091,438.937z"/>
	<path fill-rule="evenodd" clip-rule="evenodd" fill="#394452" d="M467.755,435.922c-3.426,0.014-6.853,0.028-10.278,0.042
		c-0.043-2.48,0.131-4.908,1.669-7.013c3.16,1.367,6.5,0.986,9.8,1.011C469.176,432.073,468.384,433.981,467.755,435.922z"/>
	<path fill-rule="evenodd" clip-rule="evenodd" fill="#3B836E" d="M371.168,447.006c4.127-0.18,8.184-0.216,9.787,4.775
		c-2.462,0.04-4.925,0.087-7.388,0.121C369.325,451.961,368.772,450.204,371.168,447.006z"/>
	<path fill-rule="evenodd" clip-rule="evenodd" fill="#3B836E" d="M183.742,437.896c1.396,0.797,2.792,1.593,4.677,2.669
		c-2.091,0.65-4.072,1.218-4.949,3.479c1.878,1.816,4.625-0.009,6.957,1.511c-2.94,2.197-5.874-0.251-8.555,0.508
		C182.127,443.256,181.181,440.174,183.742,437.896z"/>
	<path fill-rule="evenodd" clip-rule="evenodd" fill="#3B836E" d="M187.924,416.929c-1.511,0.385-3.023,0.771-4.533,1.155
		c-0.277-1.336-1.258-1.964-2.42-2.41c-0.366-0.247-0.732-0.495-1.1-0.742c0.15-1.781,1.186-2.756,2.865-3.142
		c-0.436,1.621,3.898-0.239,2.007,2.929C184.11,415.777,187.455,415.215,187.924,416.929z"/>
	<path fill-rule="evenodd" clip-rule="evenodd" fill="#3B836E" d="M356.967,451.787c0.927-3.555,3.62-4.586,6.877-4.813
		C363.674,451.612,361.011,452.688,356.967,451.787z"/>
	<path fill-rule="evenodd" clip-rule="evenodd" fill="#394452" d="M313.07,416.929c1.063,0.052,2.364-0.352,2.764,1.148
		c0.319,1.196-0.54,1.571-1.477,2.021c-0.802,0.385-1.42,1.148-2.119,1.745c-0.242-0.456-2.045,0.486-1.055-0.835
		c2.292-3.06-0.8-2.092-1.715-2.603C310.559,417.751,312.705,419.706,313.07,416.929z"/>
	<path fill-rule="evenodd" clip-rule="evenodd" fill="#3B836E" d="M158.905,431.113c3.606-0.511,2.288,4.549,5.295,5.042
		c-1.768-0.103-3.536-0.206-5.303-0.309C158.9,434.268,158.902,432.689,158.905,431.113z"/>
	<path fill-rule="evenodd" clip-rule="evenodd" fill="#3B836E" d="M158.927,439.908c-0.263,0.023-0.526,0.035-0.789,0.037
		c-2.174-2.168-5.219-1.83-9.318-2.93c4.097,0,6.709,0,9.323,0C163.492,436.603,157.542,439.25,158.927,439.908z"/>
	<path fill-rule="evenodd" clip-rule="evenodd" fill="#275C6B" d="M202.441,450.983c5.493,0.356,11.071-1.023,16.493,0.799
		C213.433,451.598,207.852,453.054,202.441,450.983z"/>
	<path fill-rule="evenodd" clip-rule="evenodd" fill="#3B836E" d="M321.052,407.371c1.057,0.27,2.114,0.538,3.172,0.807
		c-2.864,0.406-5.438,2.283-8.443,1.494C316.92,407.488,318.807,407.019,321.052,407.371z"/>
	<path fill-rule="evenodd" clip-rule="evenodd" fill="#3B836E" d="M265.3,420.971c2.309-0.265,4.669-0.545,6.656,0.979
		c1.594,1.224,0.79,1.845-0.756,2.061C270.281,420.965,265.907,424.623,265.3,420.971z"/>
	<path fill-rule="evenodd" clip-rule="evenodd" fill="#3B836E" d="M192.945,451.779c-1.093-1.565-3.243-0.156-4.53-1.689
		c1.489-3,3.784-1.277,5.802-0.975C193.978,450.092,194.494,451.429,192.945,451.779z"/>
	<path fill-rule="evenodd" clip-rule="evenodd" fill="#394452" d="M240.999,406.199c-0.026,1.397,0.047,2.868-2.029,2.76
		c-0.341-2.62-2.688-1.971-4.641-2.76C236.813,406.199,238.906,406.199,240.999,406.199z"/>
	<path fill-rule="evenodd" clip-rule="evenodd" fill="#3B836E" d="M431.886,423.563c0,0-0.006-0.363-0.006-0.362
		c2.36-0.056,4.721-0.113,7.083-0.169c1.163,0.335,1.476,1.383,1.345,2.275c-0.165,1.134-1.215,0.629-1.958,0.559
		C437.434,421.619,433.938,424.62,431.886,423.563z"/>
	<path fill-rule="evenodd" clip-rule="evenodd" fill="#3B836E" d="M183.078,448.951c2.48-0.912,2.418,1.926,3.825,2.595
		c-0.954,0.037-1.91,0.053-2.863,0.117C180.473,451.904,182.311,450.24,183.078,448.951z"/>
	<path fill-rule="evenodd" clip-rule="evenodd" fill="#3B836E" d="M163.886,391.746c-0.011,0.35-0.021,0.699-0.034,1.048
		c-2.125-0.001-4.247-0.001-6.719-0.001C159.409,391.059,161.56,390.834,163.886,391.746z"/>
	<path fill-rule="evenodd" clip-rule="evenodd" fill="#3B836E" d="M271.019,424.192c0.12,1.47,3.887,4.128-1.265,3.878
		C269.051,426.41,269.453,425.111,271.019,424.192z"/>
	<path fill-rule="evenodd" clip-rule="evenodd" fill="#394452" d="M273.971,413.032c-0.507,2.031,0.592,4.541-1.791,6.014
		c-0.018-0.502-0.035-1.004-0.055-1.509c-0.002-0.002-0.003,0.116-0.003,0.116C272.333,415.951,271.553,413.853,273.971,413.032z"/>
	<path fill-rule="evenodd" clip-rule="evenodd" fill="#275C6B" d="M210.838,426.139c-0.732,0.2-1.464,0.401-2.196,0.602
		c-2.18-0.593-1.004-1.691-0.407-2.701c1.515-0.318,2.615,0.045,2.896,1.759L210.838,426.139z"/>
	<path fill-rule="evenodd" clip-rule="evenodd" fill="#394452" d="M303.947,416.96c-1.432-1.63-1.415-3.284-0.079-4.959
		C304.933,413.638,304.729,415.295,303.947,416.96z"/>
	<path fill-rule="evenodd" clip-rule="evenodd" fill="#3B836E" d="M168.089,387.548l0.01-0.07c-3.077,0-6.153,0-9.23,0
		c0.004-0.113,0.007-0.226,0.011-0.339C161.949,387.275,165.019,387.411,168.089,387.548z"/>
	<path fill-rule="evenodd" clip-rule="evenodd" fill="#394452" d="M239.958,410.933c0.676,1.303,0.93,2.349-1.188,1.948
		c-0.721-2.373-2.885-0.707-4.043-1.428C236.39,411.288,238.174,411.11,239.958,410.933z"/>
	<path fill-rule="evenodd" clip-rule="evenodd" fill="#394452" d="M385.026,420.988c-1.468-1.399-1.624-2.762,0.114-4.071
		C385.698,418.291,385.719,419.649,385.026,420.988z"/>
	<path fill-rule="evenodd" clip-rule="evenodd" fill="#3B836E" d="M196.006,415.204c0.722,0.435,1.444,0.867,2.876,1.729
		c-2.208,0-3.56,0-4.911-0.001c0.042-0.647,0.083-1.294,0.125-1.939C194.732,415.065,195.369,415.135,196.006,415.204z"/>
	<path fill-rule="evenodd" clip-rule="evenodd" fill="#394452" d="M352.793,437.72c0.111,1.022-0.051,1.922-1.093,2.425
		c-0.794-0.144-1.587-0.287-2.908-0.527C350.476,438.819,351.634,438.27,352.793,437.72z"/>
	<path fill-rule="evenodd" clip-rule="evenodd" fill="#394452" d="M270.91,417.132c-1.465,0.196-2.93,0.394-4.395,0.59
		c-0.008-0.076-0.016-0.151-0.024-0.228c1.48-0.083,2.959-0.166,4.44-0.244C270.933,417.256,270.91,417.132,270.91,417.132z"/>
	<path fill-rule="evenodd" clip-rule="evenodd" fill="#3B836E" d="M182.883,420.113c1.066-0.135,2.157-0.552,3.239,0.292
		c-1.071,1.13-2.243,0.495-3.364,0.33c0-0.002-0.177-0.36-0.177-0.36L182.883,420.113z"/>
	<path fill-rule="evenodd" clip-rule="evenodd" fill="#394452" d="M464.885,408.191c-1.277,1.237-1.698,0.391-1.973-0.811
		C463.703,407.327,464.402,407.495,464.885,408.191z"/>
	<path fill-rule="evenodd" clip-rule="evenodd" fill="#394452" d="M439.792,418.612c0.126,0.881,0.061,1.707-0.676,2.339
		C437.959,419.772,437.622,418.831,439.792,418.612z"/>
	<path fill-rule="evenodd" clip-rule="evenodd" fill="#3B836E" d="M183.685,436.313c0.514-0.087,1.106-0.636,1.457,0.247
		c-0.432,0.112-0.863,0.226-1.295,0.338C183.581,436.761,183.526,436.566,183.685,436.313z"/>
	<path fill-rule="evenodd" clip-rule="evenodd" fill="#394452" d="M310.063,425.331c0,0,0.027-0.124,0.028-0.133
		c-0.247,0.123-0.494,0.255-0.741,0.387C309.587,425.501,309.825,425.416,310.063,425.331z"/>
	<path fill-rule="evenodd" clip-rule="evenodd" fill="#275C6B" d="M295.951,428.954c-0.761-0.167-1.05-0.434-0.2-0.94
		C295.777,428.336,295.845,428.649,295.951,428.954z"/>
	<path fill-rule="evenodd" clip-rule="evenodd" fill="#394452" d="M273.042,411.604c0,0,0.01-0.115,0.009-0.113
		c-0.105,0.009-0.209,0.018-0.314,0.026C272.838,411.546,272.94,411.575,273.042,411.604z"/>
	<path fill-rule="evenodd" clip-rule="evenodd" fill="#3B836E" d="M182.976,435.014c-0.045,0.386-0.089,0.771-0.135,1.156
		c-0.234-0.141-0.467-0.282-0.701-0.424C182.418,435.502,182.697,435.258,182.976,435.014z"/>
	<path fill-rule="evenodd" clip-rule="evenodd" fill="#3B836E" d="M383.97,451.7c0.048-0.334,0.223-0.568,0.523-0.702
		C384.877,451.648,384.551,451.769,383.97,451.7z"/>
	<path fill-rule="evenodd" clip-rule="evenodd" fill="#293540" d="M202.268,400.998c0.798,1.036,0.091,0.924-0.617,0.81
		C201.856,401.538,202.063,401.269,202.268,400.998z"/>
	<path fill-rule="evenodd" clip-rule="evenodd" fill="#013761" d="M285.058,397.653c0.269-0.237,0.537-0.474,0.805-0.711
		c0.067,0.247,0.129,0.496,0.187,0.746C285.72,397.677,285.389,397.665,285.058,397.653z"/>
	<path fill-rule="evenodd" clip-rule="evenodd" fill="#293540" d="M270.91,417.132c0,0,0.022,0.124,0.021,0.118
		c0.395,0.13,0.791,0.265,1.189,0.401c0.002,0.002,0.003-0.116,0.005-0.114C271.722,417.403,271.316,417.268,270.91,417.132z"/>
	<path fill-rule="evenodd" clip-rule="evenodd" fill="#3B836E" d="M183.044,418.19c-0.109,0.332-0.219,0.664-0.329,0.994
		c-0.15-0.302-0.298-0.603-0.447-0.903C182.527,418.251,182.785,418.221,183.044,418.19z"/>
	<path fill-rule="evenodd" clip-rule="evenodd" fill="#002532" d="M370.828,293.079c0.779,3.249,4.186,3.813,6.068,5.932
		c0.649,0.938,1.339,1.848,1.94,2.815c1.146,1.847,1.482,3.675-0.491,5.219c-1.871,1.463-3.611,1.107-5.257-0.464
		c-1.294-1.237-2.639-2.419-3.961-3.626c-2.441-3.237-5.103-6.271-8.201-8.904c-0.315-0.401-0.632-0.804-0.947-1.205
		c1.097-2.578,3.036-3.868,5.846-3.824C367.492,290.375,369.16,291.727,370.828,293.079z"/>
	<path fill-rule="evenodd" clip-rule="evenodd" fill="#002532" d="M264.028,372.966c-0.823-0.389-1.009-1.126-1.059-1.938
		C263.766,371.433,264.002,372.142,264.028,372.966z"/>
	<path fill-rule="evenodd" clip-rule="evenodd" fill="#002532" d="M265.016,373.977c-0.344-0.352-0.688-0.702-1.031-1.055
		C264.328,373.273,264.672,373.625,265.016,373.977z"/>
	<path fill-rule="evenodd" clip-rule="evenodd" fill="#00759A" d="M175.871,305.915c2.364,0.111,3.419-1.819,4.787-3.167
		c7.644-7.542,15.064-15.308,23.559-21.953c5.076-3.972,10.033-3.664,15.042-0.221c5.569,3.828,11.017,7.831,16.551,11.709
		c2.292,1.607,4.672,3.087,7.013,4.626c-1.432,2.564-3.627,4.42-5.814,6.285c-5.138-6.969-12.366-11.519-19.591-15.739
		c-5.747-3.356-12.425-0.302-18.384,5.887c-9.754,10.134-19.835,19.954-29.861,29.823c-3.884,3.824-7.996,7.417-11.998,11.121
		c-1.322,1.225-2.392,2.871-4.557,2.646c4.151-7.258,9.431-13.73,14.284-20.502c1.227-1.711,2.735-3.296,3.218-5.464
		c1.261-1.02,2.522-2.039,3.784-3.058c2.961,1.662,1.715-0.975,2.045-2.001L175.871,305.915z"/>
	<path fill-rule="evenodd" clip-rule="evenodd" fill="#002532" d="M237.008,303.194c2.188-1.865,4.383-3.721,5.814-6.285
		c0.299-0.046,0.595-0.107,0.886-0.188c2.363,0.377,4.023,2.809,6.696,2.299c-1.502,1.726-3.58,3.087-3.674,5.721
		c-2.457,1.473-3.759,3.945-5.4,6.143c-1.764,2.362-4.088,4.594-7.001,2.457c-2.95-2.164-0.779-4.697,0.72-6.841
		C235.791,305.441,236.985,304.674,237.008,303.194z"/>
	<path fill-rule="evenodd" clip-rule="evenodd" fill="#01B078" d="M359.979,292.846c0.315,0.401,0.632,0.803,0.947,1.205
		c-2.719,2.868-5.912,2.775-9.164-0.266c0.521-2.2,2.651-2.375,4.173-3.317C357.283,291.261,358.632,292.054,359.979,292.846z"/>
	<path fill-rule="evenodd" clip-rule="evenodd" fill="#002532" d="M342.962,288.98c3.288-0.018,2.716,3.145,3.964,4.809
		c-0.595,0.484-1.189,0.97-1.783,1.457C344.416,293.158,343.689,291.069,342.962,288.98z"/>
	<path fill-rule="evenodd" clip-rule="evenodd" fill="#002532" d="M319.916,317.002c-0.673-0.445-0.618-0.763,0.167-0.956
		C320.136,316.384,320.08,316.702,319.916,317.002z"/>
	<path fill-rule="evenodd" clip-rule="evenodd" fill="#F8F9F9" d="M293.267,274.255c0.629-0.03,0.951-0.366,0.984-0.989
		c1.446-1.014,2.821-2.151,4.35-3.02c8.353-4.744,18.426-0.42,22.242,9.636c3.169,8.35,1.23,16.64-0.146,25.069
		c-1.787,10.947-8.385,15.662-18.712,16.55c-2.83,0.246-3.509-2.072-4.522-3.89c-3.641-6.535-5.833-13.671-8.447-20.632
		c-0.161-1.319-0.323-2.64-0.484-3.959c-0.031-2.362-0.062-4.723-0.092-7.085C289.412,281.78,291.361,278.026,293.267,274.255z"/>
	<path fill-rule="evenodd" clip-rule="evenodd" fill="#F8F9F9" d="M327.28,279.673c0.303-1.166-1.264-2.764,0.543-3.498
		c1.239-0.503,2.144,0.64,2.908,1.511c4.629,5.279,8.319,11.182,11.591,17.373c0.629,1.19,0.822,2.101-0.288,3.057
		c-4.739,4.081-9.462,8.181-15.108,11.731c0.834-4.078,1.959-8.122,2.433-12.241c0.701-6.09,1.895-12.347-2.084-17.937
		C327.274,279.669,327.28,279.673,327.28,279.673z"/>
	<path fill-rule="evenodd" clip-rule="evenodd" fill="#F8F9F9" d="M343.851,284.105c-0.364-0.608-0.729-1.217-1.093-1.824
		c-0.642-2.335,0.43-2.895,2.187-1.701c2.586,1.756,5.068,3.715,7.36,5.842c2.409,2.234-0.591,2.936-1.512,4.135
		c-1.459,1.901-2.375,0.773-3.217-0.696C346.438,287.877,345.688,285.636,343.851,284.105z"/>
	<path fill-rule="evenodd" clip-rule="evenodd" fill="#293540" d="M288.44,285.937c0.031,2.362,0.062,4.723,0.092,7.085
		C286.073,290.692,286.233,288.328,288.44,285.937z"/>
	<path fill-rule="evenodd" clip-rule="evenodd" fill="#008FBE" d="M175.949,305.906c-0.33,1.026,0.917,3.663-2.045,2.001
		C174.164,306.809,174.72,306.012,175.949,305.906z"/>
	<path fill-rule="evenodd" clip-rule="evenodd" fill="#394452" d="M245.874,412.847c-0.332-0.678-0.717-1.101-0.663-1.457
		c0.053-0.345,0.558-0.62,0.865-0.926c0.241,0.37,0.667,0.739,0.669,1.111C246.747,411.92,246.296,412.268,245.874,412.847z"/>
	<path fill-rule="evenodd" clip-rule="evenodd" fill="#F8F9F9" d="M415.347,431.941c-0.362,1.687-0.724,3.374-1.086,5.061
		c-1.355,2.442,0.236,6.419-4.441,7.204c-3.111,0.522-3.367-0.871-2.347-2.649c1.219-2.123,1.576-4.274,1.82-6.558
		c1.23-5.505,2.758-10.965,3.6-16.528c0.713-4.716,2.811-5.498,6.702-3.537c-1.241,1.793-0.269,4.84-3.469,5.707
		c-0.518,0.141-2.909,2.482,0.007,4.631C418.239,426.824,415.232,429.6,415.347,431.941z"/>
	<path fill-rule="evenodd" clip-rule="evenodd" fill="#F8F9F9" d="M287.299,424.307c0.211,1.353,2.824,0.914,2.188,2.676
		c-0.458,1.271-1.941,1.153-3.057,1.013c-2.285-0.287-0.856-2.049-1.061-3.131c-0.267-1.409-0.405-2.676,0.706-4.117
		c1.08-1.4,1.307-3.375,3.806-2.729c1.234,0.319,1.443,1.026,1.423,2.153c-0.039,2.161-0.335,3.981-3.155,3.812
		C287.874,423.967,287.583,424.189,287.299,424.307z"/>
	<polygon fill-rule="evenodd" clip-rule="evenodd" fill="#3B836E" points="271.148,430.441 271.507,430.315 271.485,430.619 	"/>
	<path fill-rule="evenodd" clip-rule="evenodd" fill="#F8F9F9" d="M372.975,430.964c-0.916,1.208-1.127,2.568-0.861,4.03
		c-1.839,1.579-3.667,1.767-5.479-0.044c1.406-3.62,3.254-7.049,3.62-11.077c0.152-1.681,1.179-3.607,3.561-3.655
		C372.085,423.686,372.951,427.357,372.975,430.964z"/>
	<path fill-rule="evenodd" clip-rule="evenodd" fill="#275C6B" d="M211.131,425.798c0.415,0.219,1.439,0.052,1.024,0.813
		c-0.318,0.584-0.983,0.046-1.316-0.474C210.838,426.139,211.131,425.798,211.131,425.798z"/>
	<path fill-rule="evenodd" clip-rule="evenodd" fill="#F8F9F9" d="M459.146,428.951c-1.538,2.104-1.712,4.532-1.669,7.013
		c-0.811,3.3-2.413,6.512-1.103,10.044c-2.31,0.675-4.814,2.583-6.448-1.02c0.812-3.618,1.624-7.235,2.437-10.854
		c2.395-4.767,0.656-10.529,3.654-15.15c0.306-0.367,0.611-0.734,0.917-1.103c7.535-1.198,2.028,4.345,3.113,6.475
		C460.534,425.314,458.746,427.212,459.146,428.951z"/>
</g>
</svg>
