<svg width="109" height="111" viewBox="0 0 109 111" version="1.1" xmlns="http://www.w3.org/2000/svg" xmlns:xlink="http://www.w3.org/1999/xlink">
<title>POPULAR</title>
<desc>Created using Figma</desc>
<g id="Canvas" transform="translate(-23844 -5887)">
<g id="POPULAR">
<g id="Vector 3">
<use xlink:href="#path0_fill" transform="translate(23844 5908.5)" fill="#95B1CC"/>
</g>
<g id="Vector 3.1">
<use xlink:href="#path0_fill" transform="matrix(-4.37114e-08 -1 -1 4.37114e-08 23933 5997.5)" fill="#95B1CC"/>
</g>
<g id="Vector 2" filter="url(#filter0_d)">
<use xlink:href="#path1_fill" transform="matrix(0.707107 0.707107 -0.707107 0.707107 23869.5 5891)" fill="url(#paint2_linear)"/>
</g>
<g id="POPULAR">
<use xlink:href="#path2_fill" transform="matrix(0.707107 0.707107 -0.707107 0.707107 23882.4 5908)" fill="#45519B"/>
</g>
</g>
</g>
<defs>
<filter id="filter0_d" filterUnits="userSpaceOnUse" x="23846" y="5887" width="107" height="107" color-interpolation-filters="sRGB">
<feFlood flood-opacity="0" result="BackgroundImageFix"/>
<feColorMatrix in="SourceAlpha" type="matrix" values="0 0 0 0 0 0 0 0 0 0 0 0 0 0 0 0 0 0 255 0"/>
<feOffset dx="-2" dy="0"/>
<feGaussianBlur stdDeviation="2"/>
<feColorMatrix type="matrix" values="0 0 0 0 0 0 0 0 0 0 0 0 0 0 0 0 0 0 0.25 0"/>
<feBlend mode="normal" in2="BackgroundImageFix" result="effect1_dropShadow"/>
<feBlend mode="normal" in="SourceGraphic" in2="effect1_dropShadow" result="shape"/>
</filter>
<linearGradient id="paint2_linear" x1="0" y1="0" x2="1" y2="0" gradientUnits="userSpaceOnUse" gradientTransform="matrix(90.5 -9.51949e-07 1.18949e-05 424.796 11.4364 -200.627)">
<stop offset="0" stop-color="#94DE32"/>
<stop offset="0.530387" stop-color="#B0EE4A"/>
<stop offset="1" stop-color="#94DE32"/>
</linearGradient>
<path id="path0_fill" d="M 8 0L 0 8L 23 8.00107L 23 0.000861673L 8 0Z"/>
<path id="path1_fill" d="M 89.8026 0L 114.551 24.7486L 0 24.7484L 24.7487 0L 89.8026 0Z"/>
<path id="path2_fill" d="M 3.13281 10.7734L 3.13281 15L 1.15625 15L 1.15625 3.625L 5.50781 3.625C 6.77865 3.625 7.78646 3.95573 8.53125 4.61719C 9.28125 5.27865 9.65625 6.15365 9.65625 7.24219C 9.65625 8.35677 9.28906 9.22396 8.55469 9.84375C 7.82552 10.4635 6.80208 10.7734 5.48438 10.7734L 3.13281 10.7734ZM 3.13281 9.1875L 5.50781 9.1875C 6.21094 9.1875 6.7474 9.02344 7.11719 8.69531C 7.48698 8.36198 7.67188 7.88281 7.67188 7.25781C 7.67188 6.64323 7.48438 6.15365 7.10938 5.78906C 6.73438 5.41927 6.21875 5.22917 5.5625 5.21875L 3.13281 5.21875L 3.13281 9.1875ZM 20.4688 9.60938C 20.4688 10.724 20.276 11.7031 19.8906 12.5469C 19.5052 13.3854 18.9531 14.0312 18.2344 14.4844C 17.5208 14.9323 16.6979 15.1562 15.7656 15.1562C 14.8438 15.1562 14.0208 14.9323 13.2969 14.4844C 12.5781 14.0312 12.0208 13.388 11.625 12.5547C 11.2344 11.7214 11.0365 10.7604 11.0312 9.67188L 11.0312 9.03125C 11.0312 7.92188 11.2266 6.94271 11.6172 6.09375C 12.013 5.24479 12.5677 4.59635 13.2812 4.14844C 14 3.69531 14.8229 3.46875 15.75 3.46875C 16.6771 3.46875 17.4974 3.69271 18.2109 4.14062C 18.9297 4.58333 19.4844 5.22396 19.875 6.0625C 20.2656 6.89583 20.4635 7.86719 20.4688 8.97656L 20.4688 9.60938ZM 18.4922 9.01562C 18.4922 7.75521 18.2526 6.78906 17.7734 6.11719C 17.2995 5.44531 16.625 5.10938 15.75 5.10938C 14.8958 5.10938 14.2266 5.44531 13.7422 6.11719C 13.263 6.78385 13.0182 7.72917 13.0078 8.95312L 13.0078 9.60938C 13.0078 10.8594 13.25 11.8255 13.7344 12.5078C 14.224 13.1901 14.901 13.5312 15.7656 13.5312C 16.6406 13.5312 17.3125 13.1979 17.7812 12.5312C 18.2552 11.8646 18.4922 10.8906 18.4922 9.60938L 18.4922 9.01562ZM 24.4141 10.7734L 24.4141 15L 22.4375 15L 22.4375 3.625L 26.7891 3.625C 28.0599 3.625 29.0677 3.95573 29.8125 4.61719C 30.5625 5.27865 30.9375 6.15365 30.9375 7.24219C 30.9375 8.35677 30.5703 9.22396 29.8359 9.84375C 29.1068 10.4635 28.0833 10.7734 26.7656 10.7734L 24.4141 10.7734ZM 24.4141 9.1875L 26.7891 9.1875C 27.4922 9.1875 28.0286 9.02344 28.3984 8.69531C 28.7682 8.36198 28.9531 7.88281 28.9531 7.25781C 28.9531 6.64323 28.7656 6.15365 28.3906 5.78906C 28.0156 5.41927 27.5 5.22917 26.8438 5.21875L 24.4141 5.21875L 24.4141 9.1875ZM 40.9922 3.625L 40.9922 11.2266C 40.9922 12.4349 40.6042 13.3932 39.8281 14.1016C 39.0573 14.8047 38.0286 15.1562 36.7422 15.1562C 35.4401 15.1562 34.4062 14.8099 33.6406 14.1172C 32.875 13.4193 32.4922 12.4531 32.4922 11.2188L 32.4922 3.625L 34.4609 3.625L 34.4609 11.2344C 34.4609 11.9948 34.6536 12.5755 35.0391 12.9766C 35.4245 13.3776 35.9922 13.5781 36.7422 13.5781C 38.263 13.5781 39.0234 12.776 39.0234 11.1719L 39.0234 3.625L 40.9922 3.625ZM 45.0859 13.4219L 50.25 13.4219L 50.25 15L 43.1094 15L 43.1094 3.625L 45.0859 3.625L 45.0859 13.4219ZM 58.2891 12.3516L 53.8828 12.3516L 52.9609 15L 50.9062 15L 55.2031 3.625L 56.9766 3.625L 61.2812 15L 59.2188 15L 58.2891 12.3516ZM 54.4375 10.7578L 57.7344 10.7578L 56.0859 6.03906L 54.4375 10.7578ZM 66.7578 10.6172L 64.5547 10.6172L 64.5547 15L 62.5781 15L 62.5781 3.625L 66.5781 3.625C 67.8906 3.625 68.9036 3.91927 69.6172 4.50781C 70.3307 5.09635 70.6875 5.94792 70.6875 7.0625C 70.6875 7.82292 70.5026 8.46094 70.1328 8.97656C 69.7682 9.48698 69.2578 9.88021 68.6016 10.1562L 71.1562 14.8984L 71.1562 15L 69.0391 15L 66.7578 10.6172ZM 64.5547 9.03125L 66.5859 9.03125C 67.2526 9.03125 67.7734 8.86458 68.1484 8.53125C 68.5234 8.19271 68.7109 7.73177 68.7109 7.14844C 68.7109 6.53906 68.5365 6.06771 68.1875 5.73438C 67.8438 5.40104 67.3281 5.22917 66.6406 5.21875L 64.5547 5.21875L 64.5547 9.03125Z"/>
</defs>
</svg>
